<?xml version="1.0" standalone="no"?>
<!DOCTYPE svg PUBLIC "-//W3C//DTD SVG 20010904//EN"
 "http://www.w3.org/TR/2001/REC-SVG-20010904/DTD/svg10.dtd">
<svg version="1.0" xmlns="http://www.w3.org/2000/svg"
 width="1024.000000pt" height="1024.000000pt" viewBox="0 0 1024.000000 1024.000000"
 preserveAspectRatio="xMidYMid meet">

<g transform="translate(0.000000,1024.000000) scale(0.100000,-0.100000)"
fill="#000000" stroke="none">
<path d="M5040 9253 c-656 -37 -1291 -244 -1845 -601 -543 -351 -1014 -904
-1278 -1504 -189 -429 -279 -872 -276 -1362 3 -467 75 -832 259 -1301 50 -128
173 -374 245 -490 62 -101 197 -290 238 -332 l31 -33 -205 0 c-162 0 -223 -4
-298 -20 -255 -52 -450 -221 -532 -460 -19 -57 -23 -93 -28 -295 -7 -269 0
-360 33 -456 36 -104 81 -174 171 -264 93 -93 197 -154 321 -185 73 -19 113
-20 699 -20 l622 0 99 -83 c254 -212 483 -358 749 -479 1032 -470 2151 -294
3054 480 l95 81 645 3 c636 3 647 4 711 25 205 70 363 227 446 444 l29 74 0
300 0 300 -29 88 c-35 106 -87 191 -170 272 -75 73 -148 118 -263 158 -88 31
-88 31 -341 35 l-252 4 49 56 c180 209 403 605 514 912 90 249 156 522 194
800 25 187 25 668 0 850 -106 758 -434 1408 -991 1965 -89 89 -208 198 -266
244 -443 352 -980 603 -1550 725 -164 35 -318 54 -530 66 -178 10 -229 10
-350 3z m387 -274 c245 -20 532 -70 682 -119 l56 -18 -85 3 c-56 3 -79 1 -69
-5 15 -9 58 -13 201 -23 14 -1 24 -5 21 -9 -2 -5 11 -8 30 -8 41 0 170 -45
282 -100 67 -32 75 -38 50 -39 -16 0 -543 -3 -1170 -6 -627 -4 -1246 -10
-1375 -14 -188 -6 -146 -7 215 -5 248 1 439 -1 425 -6 l-25 -8 28 -1 c15 -1
27 3 27 9 0 10 159 7 249 -6 37 -5 52 -4 47 4 -4 7 176 10 609 10 345 0 615
-4 615 -9 0 -15 28 -10 34 6 5 14 27 16 146 14 135 -3 186 -14 98 -22 -32 -2
-25 -4 23 -5 49 -2 68 -6 73 -17 4 -13 -31 -15 -267 -18 -262 -2 -259 -2 86
-5 326 -2 361 -4 395 -21 100 -50 213 -122 207 -132 -3 -4 5 -15 17 -23 12 -9
18 -16 12 -16 -5 0 -15 5 -22 12 -9 9 -12 9 -12 0 0 -7 -27 -12 -77 -15 -58
-2 -45 -4 46 -5 l123 -2 67 -47 c84 -59 143 -105 207 -163 28 -25 78 -68 111
-97 71 -62 163 -166 122 -140 -21 14 -26 15 -26 2 0 -8 4 -12 9 -9 4 3 11 -2
14 -11 4 -9 13 -14 21 -11 16 7 43 -19 115 -111 l47 -60 -45 5 c-27 2 -50 -1
-59 -8 -12 -10 -18 -10 -30 0 -8 6 -22 10 -32 7 -14 -4 -13 -5 5 -6 12 0 22
-7 22 -14 0 -8 8 -14 18 -14 9 1 35 -1 57 -3 29 -3 18 -5 -40 -10 l-80 -6 115
-2 c106 -2 116 -4 130 -25 9 -12 34 -47 55 -77 22 -30 32 -49 22 -41 -18 15
-22 5 -7 -19 5 -8 12 -11 16 -8 16 16 162 -230 146 -247 -4 -5 -1 -5 6 -1 9 5
27 -24 63 -101 27 -59 57 -120 65 -135 22 -41 55 -140 44 -133 -6 4 -10 -1
-10 -9 0 -9 8 -16 18 -16 14 0 15 -2 2 -10 -13 -9 -13 -10 0 -10 13 0 13 -1 0
-10 -13 -8 -13 -10 2 -10 20 0 62 -101 46 -111 -5 -4 -2 -13 7 -23 10 -9 15
-20 11 -23 -3 -3 -1 -12 5 -20 9 -10 8 -13 -2 -13 -11 0 -11 -2 -2 -8 14 -9
43 -85 43 -113 0 -11 -5 -19 -11 -19 -6 0 -3 -7 5 -16 9 -8 16 -17 16 -19 0
-2 7 -39 15 -82 22 -115 24 -110 -37 -106 -78 6 -78 6 -78 65 0 32 -6 62 -16
76 -8 12 -12 22 -9 22 3 0 1 9 -5 20 -9 16 -8 18 5 14 8 -3 13 -9 11 -13 -3
-4 -1 -13 3 -20 6 -9 10 -5 13 13 3 15 3 24 0 21 -3 -2 -12 1 -20 8 -12 9
-144 13 -558 15 l-544 2 -6 -24 c-3 -13 -4 -35 -1 -47 3 -17 5 -12 6 13 1 45
9 50 52 38 20 -6 35 -6 39 -1 6 11 90 2 90 -9 0 -5 3 -16 7 -26 4 -10 2 -15
-3 -11 -13 8 -13 10 -19 -318 -7 -339 -5 -315 -19 -316 -6 0 -2 -4 9 -9 11 -5
14 -9 7 -9 -9 -1 -10 -5 -3 -13 45 -55 60 -76 56 -79 -5 -6 7 -7 105 -15 41
-3 84 -9 95 -14 51 -24 76 -30 69 -17 -5 8 -3 8 9 -2 9 -7 14 -18 10 -23 -3
-6 0 -8 8 -6 20 7 49 -10 49 -28 0 -12 -5 -10 -20 7 -16 20 -19 20 -13 5 5
-16 3 -18 -13 -11 -10 5 -101 11 -202 13 l-184 4 4 109 3 109 -52 0 c-29 0
-55 5 -59 12 -5 8 -2 9 9 5 13 -5 17 -1 18 16 1 21 1 21 9 -3 7 -22 8 -20 9
14 1 46 9 44 13 -2 3 -42 18 -41 19 1 0 27 2 29 9 12 7 -17 9 -14 9 13 1 18 5
31 11 27 5 -3 6 -13 3 -22 -4 -11 -3 -14 5 -9 13 8 17 47 5 45 -5 -1 -45 -1
-90 0 l-83 1 0 154 c0 93 4 157 10 161 6 4 11 -13 11 -42 l2 -48 6 39 c6 41
23 53 71 52 19 -1 26 -8 31 -31 l7 -30 1 28 c1 28 16 37 24 15 2 -7 2 -2 0 11
-2 13 2 28 9 32 7 5 -24 9 -74 9 -63 0 -89 -4 -90 -12 -1 -7 -5 48 -8 122 l-5
135 -167 3 -168 2 0 -125 0 -125 -145 0 c-80 0 -145 -3 -146 -7 -4 -55 -3
-140 2 -126 4 10 8 40 8 67 1 40 4 47 17 42 9 -3 27 -6 40 -6 14 0 24 -6 24
-14 0 -14 29 -30 38 -21 3 3 0 5 -6 5 -7 0 -12 7 -12 15 0 11 11 15 48 14 26
-1 61 -5 77 -10 23 -6 17 -7 -27 -5 -32 1 -58 -1 -58 -6 0 -8 65 -13 120 -10
49 2 -8 -19 -66 -25 -31 -3 -51 -9 -46 -12 5 -3 6 -29 2 -58 -3 -29 -2 -59 2
-68 14 -23 6 -130 -9 -128 -9 2 -10 -4 -4 -20 15 -39 24 -267 10 -267 -7 0 -9
-10 -7 -25 3 -13 1 -22 -3 -19 -5 3 -9 13 -9 22 0 15 -11 17 -72 17 l-73 0 3
-64 c2 -35 8 -73 13 -85 7 -16 8 -10 6 24 -2 25 -2 38 0 29 3 -11 11 -15 24
-12 18 5 19 0 19 -86 0 -90 0 -91 -25 -91 -14 0 -25 -5 -25 -11 0 -7 10 -9 25
-7 16 3 25 1 25 -7 0 -8 -9 -10 -25 -7 -15 2 -25 0 -25 -7 0 -6 11 -11 25 -11
22 0 25 -4 25 -34 0 -19 -4 -38 -10 -41 -6 -3 -10 3 -10 14 0 12 -4 21 -10 21
-5 0 -7 7 -4 15 7 18 -9 20 -24 2 -7 -8 -6 -17 3 -30 10 -14 14 -15 19 -5 3 7
4 3 2 -9 -2 -13 0 -23 5 -23 5 0 9 -6 9 -12 0 -7 -14 1 -31 18 l-31 31 2 814
c0 447 2 815 4 816 9 9 46 11 46 2 0 -5 31 -9 70 -9 58 0 68 3 64 15 -5 13 8
15 92 13 l99 -2 -82 -3 c-46 -2 -83 -8 -83 -13 0 -16 330 -13 331 3 0 8 2 8 6
-2 5 -11 7 -11 14 0 7 12 9 11 9 -1 0 -13 1 -13 10 0 9 13 10 13 10 0 0 -13 1
-13 10 0 6 10 10 11 10 3 0 -10 44 -13 185 -13 102 0 185 3 185 8 0 4 -24 6
-52 5 l-53 -2 45 12 c41 10 31 12 -125 19 -224 9 -765 7 -765 -4 0 -4 -7 -8
-15 -8 -13 0 -15 57 -15 453 0 459 -6 571 -36 630 -34 65 -76 117 -130 162
-31 25 -52 45 -47 45 4 0 0 6 -9 14 -15 11 -8 12 40 8 31 -2 75 -9 97 -15 52
-14 214 -15 217 -2 2 6 -31 10 -82 11 l-85 1 85 -7 85 -6 -80 -1 c-44 -1 -89
2 -100 7 -18 7 -18 8 7 15 15 4 63 6 107 4 44 -2 77 -1 74 3 -2 5 6 8 19 8 14
0 19 -3 11 -8 -8 -5 -9 -13 -3 -22 7 -11 12 -12 21 -3 6 6 19 9 28 6 11 -4 10
-1 -4 11 -19 15 -18 16 25 10 25 -4 51 -12 59 -18 12 -9 13 -8 7 3 -5 8 -3 17
5 22 8 6 -106 9 -285 8 -183 0 -294 -4 -285 -10 9 -5 10 -9 2 -9 -6 0 -15 5
-18 10 -3 6 -13 10 -21 10 -8 0 -13 -3 -11 -7 3 -5 -59 -5 -136 0 -104 5
-1678 4 -1842 -2 -11 -1 -101 2 -200 5 -112 3 -189 2 -205 -5 -20 -8 -10 -10
55 -11 58 -1 74 -4 60 -11 -13 -6 9 -7 65 -4 56 3 78 2 65 -4 -16 -8 -16 -10
-4 -10 18 -1 42 22 33 31 -8 9 50 4 64 -6 10 -6 -1 -15 -35 -31 -59 -28 -141
-109 -179 -178 -28 -51 -29 -56 -32 -232 -3 -119 -8 -182 -15 -187 -7 -4 -12
-50 -13 -125 0 -65 -3 -135 -5 -156 -3 -21 -2 -40 2 -43 4 -2 6 -80 6 -174 l0
-170 -193 0 c-106 0 -195 -4 -198 -8 -3 -5 8 -9 25 -10 42 -1 51 -12 10 -12
-19 0 -30 -4 -26 -10 8 -13 193 -12 220 1 14 6 -6 8 -62 6 -45 -1 -76 1 -70 4
7 4 71 9 144 11 119 3 132 1 137 -14 2 -10 3 -19 3 -19 -1 -1 -84 -5 -185 -8
-119 -4 -182 -3 -182 4 0 6 -5 3 -11 -5 -9 -13 -10 -12 -5 2 3 10 1 20 -3 23
-5 2 -11 -5 -14 -17 -4 -12 -9 -19 -12 -16 -4 3 -1 16 5 28 21 39 62 193 57
216 -3 17 0 21 11 16 10 -3 13 -1 8 6 -5 9 -104 12 -371 12 -358 0 -363 0
-358 -20 3 -12 10 -17 17 -13 6 4 19 6 30 4 11 -1 16 2 12 8 -4 7 1 11 14 11
12 0 18 -4 15 -10 -4 -6 5 -10 20 -10 14 0 24 3 21 8 -2 4 100 8 227 10 135 1
226 -2 218 -7 -9 -6 -5 -8 14 -8 19 0 23 2 14 8 -10 6 -10 9 -2 9 6 0 14 -4
17 -9 8 -12 -19 -33 -29 -23 -5 4 -5 2 -2 -5 9 -15 -54 -67 -118 -97 -82 -40
-162 -52 -241 -37 -128 23 -200 80 -257 201 -36 78 -42 110 -20 110 15 0 15 2
-3 15 -10 8 -14 15 -7 15 6 0 19 -7 27 -16 9 -8 16 -12 16 -7 0 13 -14 30 -30
36 -8 3 4 6 28 6 24 1 42 6 42 12 0 7 -11 9 -30 6 -16 -4 -30 -2 -30 3 0 5 35
11 78 13 l77 3 -90 1 -90 1 3 37 c4 44 63 194 93 237 l22 30 -54 -7 c-69 -10
-118 -27 -195 -70 -46 -26 -75 -35 -111 -36 -47 -1 -48 -1 -15 -10 l33 -10
-33 -38 c-18 -20 -48 -58 -66 -85 -19 -28 -37 -44 -44 -40 -6 4 -8 3 -5 -3 9
-14 -12 -73 -25 -73 -5 0 -7 -3 -5 -7 3 -5 -3 -39 -14 -78 -20 -80 -23 -160
-8 -225 6 -25 11 -62 11 -83 -1 -21 4 -48 9 -60 8 -18 9 -17 4 8 -4 22 5 12
35 -39 22 -37 40 -76 39 -85 0 -10 -2 -11 -6 -3 -3 7 -20 11 -41 11 -34 -2
-35 -2 -7 -6 17 -3 38 -12 48 -20 9 -9 20 -13 24 -10 3 4 1 7 -6 7 -7 0 -9 5
-6 10 7 12 52 -39 47 -53 -1 -5 2 -6 7 -3 12 8 34 -20 26 -33 -3 -6 0 -8 9 -5
8 3 31 -5 53 -19 63 -39 206 -93 237 -88 10 1 16 -1 13 -6 -3 -4 40 -8 96 -8
55 0 92 2 81 4 -11 2 4 9 36 17 30 8 93 33 140 56 47 23 89 41 93 40 5 -1 6 2
3 7 -3 5 10 19 28 32 19 13 61 62 93 110 50 75 59 84 70 70 12 -15 13 -15 7 0
-3 10 -1 20 5 24 6 3 11 0 11 -7 0 -9 3 -9 10 2 6 10 10 11 10 3 0 -10 28 -13
113 -11 l112 2 -110 6 c-104 6 -102 6 55 7 100 0 151 -3 130 -7 l-35 -8 35 1
c22 1 34 7 32 15 -1 6 7 12 18 12 12 0 17 -5 14 -14 -3 -8 -1 -17 5 -21 6 -3
11 -28 11 -56 l0 -49 -147 -2 -148 -2 144 -3 144 -4 -6 -49 c-4 -31 -2 -52 5
-56 11 -7 3 -188 -9 -208 -4 -5 -1 -6 6 -1 10 5 12 -10 9 -69 -3 -68 -1 -75
15 -70 16 5 17 -66 17 -1401 l0 -1406 -27 3 -28 3 -3 1243 -2 1242 -81 0 -81
0 6 63 c3 34 7 80 7 102 2 37 2 38 6 8 7 -56 20 -36 15 25 -2 31 -1 54 3 50 9
-9 23 -118 14 -112 -4 2 -10 0 -13 -5 -3 -5 6 -12 21 -16 17 -4 29 -2 31 4 5
15 21 14 38 -4 28 -27 34 -16 34 59 0 111 -28 165 -44 85 -3 -19 0 -44 8 -63
8 -17 17 -42 20 -56 3 -14 3 -19 0 -12 -3 6 -14 12 -24 12 -11 0 -22 10 -26
23 -3 12 -15 30 -25 40 -19 18 -27 63 -9 52 6 -3 10 5 10 19 0 18 -4 24 -15
20 -8 -4 -15 -13 -15 -21 0 -8 -4 -11 -10 -8 -6 4 -10 -6 -11 -22 -1 -27 -1
-27 -8 -4 -6 23 -10 24 -86 22 -44 -1 -77 0 -74 4 4 3 41 7 82 8 71 2 98 9 85
23 -4 3 -15 1 -26 -5 -12 -6 -41 -11 -66 -11 -37 0 -46 3 -45 18 0 10 3 12 6
5 6 -15 89 -18 98 -3 8 13 45 13 45 -1 0 -5 6 -7 12 -2 17 10 106 21 111 14 2
-3 2 0 1 7 -2 6 4 12 13 12 9 0 13 3 10 7 -4 3 -17 1 -30 -5 -22 -10 -234 -26
-224 -16 3 3 52 9 108 13 l104 8 -132 1 c-87 0 -133 -3 -136 -11 -2 -6 -9 -7
-15 -3 -7 4 -12 30 -12 62 l0 54 87 0 c47 0 84 2 82 4 -10 10 -327 17 -369 8
-41 -9 -42 -10 -12 -11 32 -1 32 -1 32 -53 l0 -53 -682 3 c-376 1 -693 2 -705
2 -30 0 -29 12 6 180 58 274 99 391 135 389 17 -1 17 -2 4 -6 -10 -2 -18 -12
-17 -21 0 -11 2 -12 6 -4 2 6 11 12 19 12 8 0 14 5 14 11 0 7 32 9 94 7 52 -2
92 0 89 5 -2 4 -43 8 -91 9 l-87 2 95 6 c52 3 87 7 78 8 -10 1 -18 7 -18 13 0
6 7 8 16 5 10 -4 14 -1 11 6 -2 9 -31 13 -94 13 -50 0 -86 -3 -80 -7 7 -4 33
-8 60 -8 26 0 47 -4 47 -10 0 -12 -11 -12 -67 -1 -37 7 -44 6 -57 -13 -13 -19
-15 -19 -15 -3 -1 10 -5 16 -10 13 -5 -3 -3 15 5 41 20 65 75 183 86 183 5 0
7 4 3 9 -6 11 84 191 95 191 4 0 11 11 14 25 4 14 11 23 16 20 6 -3 7 1 4 10
-7 18 12 50 80 130 28 33 42 53 32 45 -18 -13 -19 -13 -11 0 27 47 102 134
131 153 19 12 34 28 34 36 0 11 -3 11 -17 0 -22 -17 -9 0 124 151 149 169 239
250 278 250 14 0 26 10 34 27 11 25 11 25 -6 12 -10 -7 -7 -1 7 15 14 15 79
68 144 117 l119 89 76 1 c42 0 91 2 110 4 19 1 30 0 25 -4 -6 -3 -24 -28 -41
-56 -45 -71 -99 -120 -163 -148 -30 -14 -64 -34 -74 -46 -19 -21 -19 -21 4
-21 41 0 136 -67 184 -131 25 -34 46 -67 46 -75 0 -8 6 -14 14 -14 8 0 17 -9
21 -20 6 -18 9 -16 36 15 17 19 36 32 44 29 7 -3 16 -1 20 5 3 6 0 9 -8 5 -8
-3 -17 3 -21 12 -9 23 120 149 183 180 l43 22 -36 12 c-45 14 -52 25 -19 27
20 1 23 -1 12 -9 -12 -8 -12 -9 1 -5 8 2 14 10 13 16 -2 6 5 11 15 12 9 0 12
3 5 5 -7 3 -21 1 -32 -5 -14 -8 -20 -8 -24 2 -3 9 -7 9 -19 -1 -12 -10 -18
-10 -27 2 -10 12 -8 13 10 9 16 -5 20 -3 14 6 -4 7 -18 11 -31 8 -17 -3 -33 6
-62 37 -60 64 -98 119 -84 124 9 3 9 9 2 23 -6 10 -7 20 -3 20 13 2 -50 17
-77 18 -20 0 -22 -1 -10 -9 9 -6 10 -10 3 -10 -6 0 -15 5 -18 10 -3 6 -11 10
-16 10 -6 0 -7 -4 -4 -10 3 -6 -1 -7 -9 -4 -9 3 -13 10 -11 15 14 22 295 167
295 152 0 -3 8 1 19 11 11 10 26 14 37 10 15 -4 16 -4 5 4 -11 8 6 20 70 50
114 55 275 114 326 120 24 2 41 8 38 12 -2 3 13 7 33 8 20 0 51 1 67 2 l30 1
-29 13 -30 14 55 15 c354 101 786 145 1136 116z m-1207 -149 c-8 -5 -19 -10
-25 -10 -5 0 -3 5 5 10 8 5 20 10 25 10 6 0 3 -5 -5 -10z m2387 -186 c-3 -3
-12 -4 -19 -1 -8 3 -5 6 6 6 11 1 17 -2 13 -5z m-3197 -228 c0 -3 -4 -8 -10
-11 -5 -3 -10 -1 -10 4 0 6 5 11 10 11 6 0 10 -2 10 -4z m53 -3 c-7 -2 -21 -2
-30 0 -10 3 -4 5 12 5 17 0 24 -2 18 -5z m76 -222 l47 -49 -47 -49 -47 -50
-34 37 c-18 20 -42 41 -52 47 -17 10 -15 14 30 60 27 27 50 51 52 51 2 1 25
-20 51 -47z m2794 32 c-7 -2 -19 -2 -25 0 -7 3 -2 5 12 5 14 0 19 -2 13 -5z
m94 1 c-3 -3 -12 -4 -19 -1 -8 3 -5 6 6 6 11 1 17 -2 13 -5z m-211 -161 c69
-37 124 -117 124 -180 0 -22 -2 -25 -10 -13 -5 8 -10 13 -10 10 -8 -135 -8
-199 -2 -310 l7 -135 5 195 c3 107 7 -327 8 -964 2 -1093 1 -1160 -15 -1172
-17 -13 -17 -15 1 -29 11 -8 15 -15 9 -15 -6 0 -16 6 -22 13 -8 10 -12 358
-13 1235 l-3 1221 -21 28 c-11 15 -40 42 -63 58 l-43 30 -971 0 c-887 0 -975
-1 -1002 -17 -46 -25 -84 -70 -105 -124 -15 -39 -19 -44 -21 -24 -1 14 -7 -2
-14 -35 l-13 -60 -1 51 c-2 121 75 227 184 253 24 5 422 9 995 8 l955 -2 41
-22z m-109 -315 c18 -10 45 -35 60 -55 l28 -36 3 -1063 2 -1062 -42 10 c-24 5
-127 29 -229 54 -157 37 -201 44 -288 44 -117 0 -109 -3 -286 108 -195 123
-193 113 -21 111 133 -1 147 -2 140 -17 -4 -10 -9 -36 -12 -59 -5 -50 23 -103
63 -121 34 -16 93 -15 125 1 57 29 88 119 55 163 -8 10 -15 23 -15 28 0 5 47
6 106 3 101 -5 106 -4 135 20 34 29 36 51 8 87 l-20 26 -432 0 -432 0 0 100 0
100 376 0 376 0 31 108 c17 59 50 179 72 267 23 88 57 217 76 286 36 132 39
150 27 148 -5 -1 -290 -1 -634 0 l-626 1 -43 93 c-63 135 -51 127 -199 127
-98 0 -132 -3 -149 -16 -28 -20 -29 -61 0 -91 19 -21 30 -23 113 -23 90 0 92
0 105 -27 38 -83 230 -516 277 -628 50 -118 56 -140 64 -235 4 -57 7 -106 5
-108 -2 -2 -16 8 -31 23 -38 34 -142 65 -221 65 -222 0 -388 -169 -388 -395 1
-161 86 -303 272 -450 l50 -40 -189 -191 -189 -190 -2 -330 c-2 -433 -3 -418
16 -469 20 -51 84 -113 127 -122 49 -9 47 -26 -2 -18 -90 15 -145 59 -175 142
-18 51 -21 3480 -3 3534 16 46 46 78 94 100 38 18 80 19 915 16 812 -2 877 -3
907 -19z m1697 -44 c3 -8 1 -14 -3 -14 -5 0 -11 6 -13 12 -3 8 -20 12 -44 11
l-39 -1 35 7 c41 8 56 5 64 -15z m-3757 -46 c-3 -8 -6 -5 -6 6 -1 11 2 17 5
13 3 -3 4 -12 1 -19z m8 -800 c7 -1443 21 -2914 28 -2941 6 -21 4 -27 -4 -21
-7 4 -10 2 -7 -7 3 -8 11 -13 17 -12 6 2 11 -6 11 -17 0 -11 6 -21 13 -22 6 0
17 -2 23 -2 17 -2 44 -27 39 -36 -3 -4 2 -11 11 -14 9 -4 13 -2 8 5 -4 7 1 7
16 -1 34 -18 120 -38 141 -33 31 9 21 -14 -11 -26 -19 -6 -28 -6 -25 0 4 6 -8
7 -33 3 -31 -5 -40 -3 -45 10 -4 9 -12 16 -19 16 -9 0 -9 -3 2 -11 11 -8 9 -9
-10 -4 -48 13 -124 71 -114 86 3 5 1 9 -4 9 -4 0 -17 17 -28 38 -19 36 -19 80
-22 1871 -1 1009 0 1832 4 1829 3 -4 7 -327 9 -720z m-1386 593 c-28 -75 -33
-164 -15 -251 22 -103 60 -175 126 -240 88 -86 195 -130 320 -130 64 0 205 32
225 51 12 12 35 12 35 -2 0 -17 -104 -142 -144 -172 -20 -15 -70 -44 -111 -64
-173 -82 -389 -46 -532 90 -104 98 -149 213 -141 363 4 80 10 103 41 168 38
80 95 149 167 202 25 19 46 34 47 34 0 0 -7 -22 -18 -49z m4308 -567 c-3 -3
-12 -4 -19 -1 -8 3 -5 6 6 6 11 1 17 -2 13 -5z m380 0 c-3 -3 -12 -4 -19 -1
-8 3 -5 6 6 6 11 1 17 -2 13 -5z m-2398 -46 c7 -24 14 -50 17 -59 4 -13 -6
-16 -59 -18 l-63 -2 -26 61 -27 60 73 0 73 0 12 -42z m217 -15 c6 -29 9 -55 6
-58 -3 -3 -27 -5 -53 -5 -46 0 -47 1 -62 43 -8 23 -18 50 -22 60 -7 16 -2 18
56 15 l64 -3 11 -52z m224 -3 l0 -60 -58 0 -59 0 -12 43 c-7 23 -15 50 -17 60
-5 15 3 17 70 17 l76 0 0 -60z m235 13 c-10 -72 -10 -73 -57 -73 -81 0 -88 6
-88 66 l0 54 76 0 75 0 -6 -47z m225 42 c0 -7 -22 -105 -23 -105 -37 -9 -80
-9 -94 -2 -15 8 -17 20 -15 61 l4 51 64 0 c35 0 64 -2 64 -5z m-851 -202 c6
-16 15 -43 20 -60 l10 -33 -54 0 c-57 0 -60 3 -94 93 l-11 27 59 0 c54 0 59
-2 70 -27z m201 -14 c16 -60 11 -74 -32 -77 -32 -3 -39 1 -51 25 -8 15 -18 43
-22 61 l-7 32 51 0 50 0 11 -41z m200 -19 l0 -60 -45 0 c-44 0 -44 0 -55 43
-6 23 -13 50 -16 60 -5 15 2 17 55 17 l61 0 0 -60z m210 38 c0 -13 -3 -40 -6
-61 l-7 -38 -51 3 -51 3 -3 58 -3 57 61 0 c56 0 60 -2 60 -22z m186 -19 c-11
-67 -21 -79 -68 -79 l-41 0 7 38 c3 20 6 47 6 60 0 20 5 22 51 22 l52 0 -7
-41z m-554 -185 c27 -79 25 -86 -23 -82 -41 3 -42 4 -64 65 l-22 62 36 4 c54
5 55 5 73 -49z m343 -61 c-4 -19 -12 -23 -45 -23 -32 0 -40 4 -40 19 0 10 -3
39 -6 64 l-7 46 49 3 49 3 3 -44 c2 -25 1 -55 -3 -68z m-519 55 c9 -29 19 -59
22 -65 3 -9 -9 -13 -41 -13 l-44 0 -27 59 c-14 32 -26 61 -26 65 0 3 22 6 49
6 l49 0 18 -52z m344 -14 l0 -65 -32 3 c-33 3 -37 9 -52 91 l-7 37 46 0 45 0
0 -66z m346 49 c-3 -10 -10 -39 -17 -65 -10 -44 -14 -48 -42 -48 -30 0 -30 0
-23 46 3 26 6 55 6 65 0 15 8 19 41 19 34 0 39 -3 35 -17z m1648 -38 c-10 -7
-22 -11 -27 -8 -12 7 0 19 23 20 21 2 21 1 4 -12z m-426 -11 c18 -5 20 -9 11
-20 -8 -10 -8 -14 0 -14 13 0 15 -102 4 -201 -6 -54 -8 -59 -14 -34 -5 21 -7
9 -8 -40 l-1 -71 -90 1 c-77 0 -90 2 -90 16 0 21 20 29 71 29 21 0 39 3 40 8
0 4 2 75 5 157 3 83 7 156 9 163 5 13 27 15 63 6z m1202 -90 c12 -12 14 -57
11 -282 -1 -147 -6 -271 -11 -276 -5 -5 -49 -12 -97 -16 -85 -6 -91 -8 -171
-59 -45 -29 -88 -51 -95 -48 -6 2 -50 28 -96 56 -81 49 -87 51 -156 51 -116 0
-110 -16 -110 286 0 157 4 266 10 278 10 20 20 21 330 26 344 5 362 5 385 -16z
m-6220 -111 c0 -10 0 -47 0 -83 0 -35 2 -61 5 -58 4 3 6 40 7 81 l0 74 86 0
87 -1 -77 -3 c-43 -2 -78 -8 -78 -13 0 -6 5 -10 11 -10 5 0 7 -5 4 -10 -7 -11
22 -26 32 -16 3 3 0 12 -7 21 -11 13 -3 15 71 15 46 0 95 3 108 7 18 5 22 3
16 -7 -6 -10 0 -11 26 -7 19 4 59 9 89 11 51 5 49 3 -7 -10 -38 -8 -27 -29 16
-30 29 -1 41 3 44 16 2 9 10 17 18 17 8 0 49 6 92 12 46 6 189 10 345 9 l267
-2 -320 -7 c-176 -3 -321 -7 -322 -8 -2 0 -3 -8 -3 -16 0 -19 76 -21 82 -3 4
10 71 13 284 13 284 0 374 -4 374 -17 0 -5 -6 -9 -12 -10 -7 -1 21 -4 62 -8
l75 -6 -74 -2 -73 -2 3 -132 c2 -73 3 -188 1 -256 l-2 -123 -57 3 c-53 3 -58
5 -61 27 -3 18 0 22 12 18 8 -3 18 -2 21 3 4 6 -3 10 -14 10 -14 0 -21 6 -21
20 0 19 -7 20 -109 20 -90 0 -110 3 -115 16 -10 25 -7 41 4 24 7 -11 8 -5 4
20 -4 27 -3 32 5 20 9 -12 10 -9 5 14 l-7 28 47 -4 c25 -3 46 -1 46 3 0 4 28
10 63 12 34 2 11 3 -50 3 -106 -1 -113 -2 -113 -21 0 -11 -5 -27 -10 -35 -7
-11 -8 -5 -4 18 6 28 4 34 -15 39 -11 3 -30 20 -41 39 -29 45 -125 131 -169
150 -72 31 -98 37 -190 39 -52 1 -86 -2 -75 -5 15 -6 12 -8 -16 -14 -19 -4
-45 -8 -57 -9 -11 -1 -19 -5 -17 -8 2 -3 -7 -11 -21 -17 -34 -16 -104 -81
-120 -113 -8 -15 -21 -34 -30 -42 -8 -9 -19 -26 -24 -39 -7 -17 -10 -19 -10
-5 -1 20 -12 22 -29 5 -9 -9 -12 -9 -12 0 0 7 5 12 10 12 6 0 10 5 10 11 0 7
-23 10 -65 7 l-65 -3 0 35 c0 19 8 85 16 145 9 61 16 120 17 133 2 26 25 30
27 5z m4788 10 c-32 -2 -84 -2 -115 0 -32 2 -6 3 57 3 63 0 89 -1 58 -3z m542
-11 c0 -11 -3 -12 -13 -4 -7 6 -33 13 -57 15 -38 3 -37 4 13 4 43 0 57 -4 57
-15z m1034 4 c-3 -7 2 -16 11 -20 9 -3 13 -2 10 4 -4 6 6 7 26 3 23 -4 30 -3
25 5 -4 7 -19 12 -33 12 -15 0 -24 3 -20 6 3 3 23 3 45 -1 36 -6 39 -9 40 -38
2 -83 3 -92 10 -77 10 23 27 -193 24 -295 l-3 -90 -65 3 -64 3 0 -83 c0 -52
-5 -91 -12 -101 -11 -14 -41 -17 -235 -19 -122 -2 -219 0 -215 4 4 3 38 27 76
51 68 45 70 45 156 46 49 0 100 5 115 11 15 6 31 7 37 4 6 -4 8 -2 5 3 -4 6 0
16 8 23 12 10 19 10 33 -1 14 -11 15 -11 5 1 -14 15 -18 34 -5 26 4 -2 9 30
11 72 3 85 7 95 25 70 15 -21 32 -11 38 25 5 26 3 27 -35 27 l-40 0 7 77 c3
42 6 118 6 170 0 53 4 93 10 93 5 0 7 -6 4 -14z m-5021 -3 c-7 -2 -19 -2 -25
0 -7 3 -2 5 12 5 14 0 19 -2 13 -5z m-53 -17 c0 -3 -4 -8 -10 -11 -5 -3 -10
-1 -10 4 0 6 5 11 10 11 6 0 10 -2 10 -4z m3737 -143 c-3 -10 -5 -2 -5 17 0
19 2 27 5 18 2 -10 2 -26 0 -35z m-3397 -1 l0 -29 -57 5 c-32 2 -65 11 -74 18
-8 8 -23 14 -32 14 -9 0 -19 5 -22 10 -4 6 28 10 89 10 l96 0 0 -28z m-1022
-61 c108 -55 178 -166 170 -267 -5 -58 -25 -94 -40 -72 -5 8 -6 2 -2 -15 4
-16 1 -33 -6 -42 -7 -9 -10 -19 -6 -22 4 -4 12 -1 17 7 9 13 10 13 6 0 -2 -8
-12 -15 -22 -15 -23 0 -32 -24 -14 -37 11 -8 10 -9 -3 -4 -10 3 -20 1 -24 -5
-3 -6 -12 -8 -20 -5 -8 3 -14 4 -14 2 0 -3 -3 -13 -6 -23 -5 -15 -4 -16 6 -3
9 12 10 11 5 -9 -5 -17 -4 -22 5 -16 9 6 11 4 5 -4 -5 -9 -10 -10 -18 -2 -14
14 -30 14 -22 1 8 -12 -13 -52 -24 -46 -4 3 -22 -16 -39 -42 -16 -26 -42 -58
-56 -72 l-27 -24 -77 84 c-146 158 -217 269 -229 357 -15 115 74 240 206 290
54 20 175 12 229 -16z m4422 5 c0 -8 -3 -16 -7 -19 -5 -2 -2 -2 5 0 10 2 12
-9 10 -40 l-3 -42 -102 -3 c-98 -3 -103 -2 -103 18 0 18 6 20 80 20 64 0 80 3
80 15 0 12 -16 15 -80 15 -79 0 -80 0 -80 25 l0 25 100 0 c80 0 100 -3 100
-14z m-2252 -15 c21 -11 75 -62 121 -116 151 -175 472 -499 768 -775 150 -139
177 -160 214 -160 42 0 56 24 36 64 -15 31 -134 179 -238 294 -27 29 -58 66
-70 83 l-21 30 24 -5 c12 -3 49 -8 80 -11 63 -7 79 -19 347 -263 98 -89 118
-103 144 -100 20 2 32 10 38 25 6 18 -5 38 -64 111 -40 50 -80 104 -90 122
l-19 31 29 -7 c80 -19 157 -72 358 -244 159 -137 214 -206 324 -407 73 -134
145 -293 178 -395 l26 -77 -129 -138 c-72 -76 -183 -196 -249 -268 -244 -266
-285 -307 -313 -310 -127 -17 -264 -27 -356 -28 -125 0 -182 15 -321 84 -150
73 -192 111 -669 598 l-208 213 4 57 c7 101 78 161 189 161 107 -1 143 -26
467 -327 37 -34 92 -75 122 -90 30 -15 59 -32 63 -38 5 -5 6 42 3 105 -5 107
-39 280 -66 330 -5 9 -60 76 -122 147 -62 72 -180 209 -263 304 -151 175 -237
273 -433 492 -199 222 -222 269 -191 382 33 119 177 182 287 126z m-1148 -16
c0 -23 -4 -25 -45 -25 -25 0 -45 4 -45 9 0 5 -3 16 -6 25 -5 13 2 16 45 16 48
0 51 -2 51 -25z m-5 -90 c0 -5 -11 -10 -25 -11 l-25 -1 25 5 c22 5 20 7 -15
13 l-40 7 40 -2 c22 0 40 -5 40 -11z m-757 -20 c-3 -3 -9 2 -12 12 -6 14 -5
15 5 6 7 -7 10 -15 7 -18z m4399 3 c-3 -8 -6 -5 -6 6 -1 11 2 17 5 13 3 -3 4
-12 1 -19z m-5304 -138 c7 0 6 -4 -3 -10 -12 -8 -10 -10 10 -11 l25 -1 -25 -9
c-20 -6 -16 -8 22 -6 25 1 44 -1 41 -5 -2 -5 -24 -8 -49 -8 l-44 0 2 98 c2 88
2 91 5 25 3 -48 8 -73 16 -73z m4951 134 c10 -4 16 -18 16 -35 0 -24 -4 -29
-26 -29 -22 0 -25 -4 -22 -27 2 -20 9 -29 26 -31 12 -2 22 -7 22 -12 0 -22
-14 -40 -31 -40 -16 0 -19 -8 -19 -45 0 -32 5 -47 15 -51 14 -6 13 -8 -2 -20
-10 -7 -28 -14 -40 -14 -23 0 -23 1 -23 155 l0 155 34 0 c19 0 41 -3 50 -6z
m-3204 -80 l0 -27 -127 6 c-126 5 -163 11 -163 27 0 12 46 17 178 18 l112 2 0
-26z m3375 16 c11 -5 15 -9 8 -9 -6 -1 -9 -10 -6 -21 4 -14 0 -20 -11 -20 -21
0 -21 -36 0 -44 8 -3 12 -10 9 -16 -3 -5 0 -10 7 -10 7 0 2 -7 -11 -16 -20
-14 -22 -22 -17 -54 6 -37 -3 -50 -35 -50 -5 0 -9 56 -9 125 0 123 0 125 23
124 12 0 31 -4 42 -9z m-5028 -32 c-3 -8 -6 -5 -6 6 -1 11 2 17 5 13 3 -3 4
-12 1 -19z m20 -30 c-3 -8 -6 -5 -6 6 -1 11 2 17 5 13 3 -3 4 -12 1 -19z m-27
-18 c0 -5 -5 -10 -11 -10 -5 0 -7 5 -4 10 3 6 8 10 11 10 2 0 4 -4 4 -10z
m1660 -9 c0 -5 3 -17 7 -27 6 -16 -4 -17 -162 -11 -92 4 -170 9 -173 11 -2 3
-2 12 1 21 5 13 31 15 167 15 90 0 160 -4 160 -9z m3970 -81 c18 -12 2 -12
-25 0 -13 6 -15 9 -5 9 8 0 22 -4 30 -9z m-4002 -7 c26 -4 32 -10 32 -29 0
-23 -3 -24 -69 -24 -39 0 -73 5 -76 10 -4 6 -11 7 -17 4 -6 -4 -8 -2 -5 3 4 6
21 14 39 18 l33 8 -45 7 c-45 8 -45 8 15 8 33 0 75 -2 93 -5z m3012 -33 c0 -5
-5 -10 -11 -10 -5 0 -7 5 -4 10 3 6 8 10 11 10 2 0 4 -4 4 -10z m-52 -7 c-10
-2 -26 -2 -35 0 -10 3 -2 5 17 5 19 0 27 -2 18 -5z m-3255 -24 c8 -29 -10 -33
-127 -27 -80 4 -109 10 -136 27 l-35 21 146 0 c140 0 147 -1 152 -21z m3246 5
c3 2 22 1 41 -4 30 -7 27 -8 -27 -8 -41 1 -64 6 -67 14 -4 10 1 11 20 3 14 -5
29 -7 33 -5z m1182 -21 c13 -16 12 -17 -3 -4 -10 7 -18 15 -18 17 0 8 8 3 21
-13z m-1188 -10 c-7 -2 -19 -2 -25 0 -7 3 -2 5 12 5 14 0 19 -2 13 -5z m-2913
-34 l0 -32 -87 7 c-84 6 -112 14 -85 23 6 3 12 11 12 19 0 11 18 14 80 14 l80
0 0 -31z m4227 16 c0 -8 -4 -12 -9 -9 -5 3 -6 10 -3 15 9 13 12 11 12 -6z
m-1320 -1 c-3 -3 -12 -4 -19 -1 -8 3 -5 6 6 6 11 1 17 -2 13 -5z m1293 -11 c0
-3 -6 -3 -12 0 -7 2 -22 0 -33 -5 -19 -9 -19 -8 -2 6 17 13 47 12 47 -1z
m-4530 -34 c0 -31 -1 -31 -37 -25 -21 3 -48 6 -59 6 -13 0 -24 8 -27 19 -5 21
3 24 86 29 35 2 37 0 37 -29z m2990 -19 c0 -5 -2 -10 -4 -10 -3 0 -8 5 -11 10
-3 6 -1 10 4 10 6 0 11 -4 11 -10z m1467 -22 c-3 -7 -5 -2 -5 12 0 14 2 19 5
13 2 -7 2 -19 0 -25z m-312 10 c-16 -6 -35 -15 -41 -20 -7 -4 -156 -8 -333 -8
-311 1 -321 2 -321 21 0 18 10 19 363 18 267 0 354 -3 332 -11z m282 -25 c-3
-10 -5 -4 -5 12 0 17 2 24 5 18 2 -7 2 -21 0 -30z m-4097 -10 l0 -28 -87 4
c-85 3 -102 10 -103 39 0 9 26 12 95 12 l95 0 0 -27z m-330 -23 l0 -30 -67 2
c-38 0 -53 3 -35 5 28 4 30 6 18 19 -8 8 -21 15 -28 15 -15 2 55 15 90 18 18
1 22 -4 22 -29z m3578 -77 c3 -52 20 -73 60 -73 21 0 23 4 21 38 -1 20 -2 49
-1 65 l2 27 185 0 c124 0 185 -4 185 -11 0 -5 -6 -7 -12 -3 -10 6 -10 4 -3 -7
6 -8 9 -42 7 -76 l-4 -63 -229 0 -229 0 0 81 c0 85 15 103 18 22z m-3267 27
c20 0 26 -24 9 -35 -6 -4 -49 -4 -95 0 -60 5 -85 11 -85 21 0 14 71 24 124 18
16 -2 37 -4 47 -4z m4229 -30 c5 -8 9 -153 10 -322 l0 -308 -220 0 -220 0 0
308 c0 169 4 312 8 318 14 21 38 23 225 21 154 -2 189 -5 197 -17z m-935 1 c3
-5 1 -12 -5 -16 -5 -3 -10 1 -10 9 0 18 6 21 15 7z m1285 -1 l-85 -6 85 -4
c54 -2 70 -5 43 -7 -24 -2 -43 -8 -43 -13 0 -5 -6 -10 -12 -13 -7 -2 -4 -2 7
0 75 17 71 17 55 -1 -13 -13 -42 -17 -158 -19 l-142 -2 2 38 1 37 166 -2 c139
-1 152 -3 81 -8z m-1253 -32 c-3 -8 -6 -5 -6 6 -1 11 2 17 5 13 3 -3 4 -12 1
-19z m-4680 -18 c20 0 32 -4 28 -10 -8 -13 -325 -14 -325 0 0 12 93 19 189 14
41 -2 89 -4 108 -4z m4240 -15 c0 -8 -4 -12 -9 -9 -5 3 -6 10 -3 15 9 13 12
11 12 -6z m-2962 -15 c13 -5 -29 -9 -112 -9 -83 -1 -133 3 -133 9 0 12 216 12
245 0z m3395 -137 l0 -47 -31 30 c-17 16 -35 37 -40 47 -9 15 -5 17 31 17 l40
0 0 -47z m170 -107 l0 -154 -59 1 c-33 1 -57 -1 -54 -5 2 -5 -1 -8 -6 -8 -16
0 -13 67 3 73 8 3 16 -2 19 -14 6 -22 27 -26 27 -4 0 8 4 15 10 15 17 0 6 50
-15 68 -19 16 -19 16 -6 0 16 -21 3 -24 -22 -5 -17 12 -21 44 -18 145 l1 42
60 0 60 0 0 -154z m216 -3 l-1 -158 -77 -3 c-58 -2 -78 1 -79 10 -2 64 2 272
6 276 3 3 0 11 -6 19 -9 11 3 13 73 13 l84 0 0 -157z m954 131 c-24 -14 -24
-15 -2 -11 14 4 22 0 22 -9 0 -11 -31 -14 -175 -14 l-175 0 0 25 0 25 178 0
c163 -1 175 -2 152 -16z m-4575 -44 c13 -5 -27 -9 -107 -9 -79 -1 -128 3 -128
9 0 12 206 12 235 0z m-429 -64 c26 -26 34 -43 34 -69 0 -23 -6 -37 -16 -41
-9 -3 -152 -6 -318 -6 -295 0 -303 1 -322 21 -39 43 -65 49 -228 49 -90 0
-165 -5 -179 -11 -43 -19 -57 -59 -57 -156 0 -83 2 -91 26 -114 l26 -24 534
-3 534 -3 0 -75 c0 -70 -2 -78 -29 -105 -22 -22 -39 -29 -68 -29 -21 0 -257 0
-525 -1 -531 0 -520 -1 -546 57 -8 16 -12 98 -12 237 0 189 2 215 19 243 39
64 33 64 589 64 l504 0 34 -34z m4984 6 c16 -7 19 -11 8 -11 -9 -1 -18 -5 -20
-10 -1 -5 -69 -11 -151 -13 l-147 -3 0 29 0 29 143 -6 c78 -2 153 -10 167 -15z
m10 -102 c0 -19 -7 -20 -160 -20 -153 0 -160 1 -160 20 0 19 7 20 160 20 153
0 160 -1 160 -20z m-5685 -40 c39 -41 41 -102 5 -131 -22 -17 -40 -19 -164
-18 -121 2 -141 4 -157 20 -27 27 -25 98 2 133 20 26 22 26 153 26 l132 0 29
-30z m1130 -10 c48 -6 32 -7 -82 -9 -90 0 -143 3 -143 9 0 11 134 12 225 0z
m4488 -29 c26 -1 47 -5 47 -10 0 -5 -8 -8 -17 -7 -10 2 -24 -3 -31 -11 -8 -7
-35 -13 -66 -13 -29 0 -81 -3 -115 -6 l-61 -7 0 32 0 31 98 -4 c53 -2 118 -5
145 -5z m-4968 -7 l80 -7 -3 -48 -4 -49 -320 0 c-288 0 -320 2 -314 16 3 9 6
33 6 55 l0 39 238 0 c130 0 273 -3 317 -6z m3875 -66 c0 -16 -9 -18 -65 -18
-59 0 -65 2 -65 21 0 18 5 20 65 18 56 -2 65 -5 65 -21z m220 2 c0 -18 -7 -20
-80 -20 -73 0 -80 2 -80 20 0 18 7 20 80 20 73 0 80 -2 80 -20z m809 -26 c50
-6 61 -10 61 -25 0 -17 -9 -19 -97 -19 -54 0 -108 -3 -120 -6 -20 -6 -23 -3
-23 25 l0 31 59 0 c32 0 86 -3 120 -6z m21 -103 c0 -27 -31 -37 -119 -40 l-91
-2 0 25 0 26 105 0 c58 0 105 -4 105 -9z m30 0 c0 -6 -4 -13 -10 -16 -5 -3
-10 1 -10 9 0 9 5 16 10 16 6 0 10 -4 10 -9z m-4490 -71 c0 -6 -32 -10 -75
-10 -43 0 -75 4 -75 10 0 6 32 10 75 10 43 0 75 -4 75 -10z m4133 -100 c5 -20
0 -20 -253 -20 -253 0 -258 0 -253 20 5 19 14 20 253 20 239 0 248 -1 253 -20z
m-283 -175 c0 -57 -2 -59 -47 -55 -17 1 -23 -4 -23 -19 0 -20 -5 -21 -115 -21
-101 0 -116 2 -122 18 -3 9 -17 41 -29 70 -13 29 -24 55 -24 57 0 3 81 5 180
5 l180 0 0 -55z m510 46 c0 -4 -11 -23 -25 -42 -13 -19 -32 -49 -42 -66 l-17
-33 -145 1 c-80 0 -137 4 -127 8 19 7 19 8 -2 13 -13 4 -22 1 -23 -5 0 -7 -3
-6 -6 2 -5 11 -7 11 -14 0 -6 -10 -9 -3 -9 21 0 19 -3 52 -6 73 l-7 37 212 0
c116 0 211 -4 211 -9z m-4335 -40 c30 -7 10 -9 -80 -9 -75 0 -113 3 -100 8 26
11 128 11 180 1z m-565 -21 c0 -6 -37 -10 -90 -10 -53 0 -90 4 -90 10 0 6 37
10 90 10 53 0 90 -4 90 -10z m-257 -73 c21 -12 51 -41 66 -64 26 -39 29 -50
25 -110 -2 -38 -12 -83 -22 -105 -11 -21 -16 -38 -11 -38 5 0 9 4 9 8 0 5 7
17 15 28 10 11 8 3 -4 -23 -12 -23 -25 -44 -30 -48 -6 -3 -9 -39 -7 -80 2 -46
-2 -79 -8 -84 -8 -7 -11 17 -11 79 0 79 -1 87 -15 75 -8 -7 -34 -19 -57 -27
-46 -14 -46 -15 -43 -95 l2 -43 -71 0 -71 0 0 84 c0 63 -4 87 -16 96 -35 30
-66 99 -67 152 -4 168 171 276 316 195z m593 -17 c72 -25 83 -35 55 -50 -17
-8 -25 -8 -35 3 -26 26 -76 41 -89 28 -9 -9 -8 -14 3 -21 8 -6 21 -8 28 -5 17
6 62 -16 62 -31 0 -7 9 -15 19 -19 11 -3 24 -19 29 -34 9 -25 8 -30 -9 -34
-10 -3 -19 -13 -19 -24 1 -17 1 -17 15 1 11 14 15 16 15 5 0 -11 2 -11 9 -1 7
11 9 11 14 -2 3 -8 2 -18 -3 -21 -6 -3 -15 -15 -20 -25 -8 -16 -7 -18 4 -14
15 6 15 0 1 -44 -5 -14 -13 -21 -22 -18 -8 3 -12 2 -8 -3 3 -5 -1 -12 -7 -14
-10 -4 -10 -8 2 -16 8 -5 18 -7 22 -5 4 3 5 -2 2 -10 -9 -23 -34 -27 -52 -8
-10 10 -13 12 -8 5 16 -24 -2 -25 -24 -1 -13 13 -20 18 -17 12 5 -8 -2 -11
-18 -10 -14 0 -25 4 -25 8 0 9 69 42 90 42 23 1 27 109 6 141 -9 14 -21 25
-27 25 -7 0 -6 -6 2 -17 13 -15 12 -15 -8 -3 -24 16 -21 30 7 30 26 0 50 10
50 22 0 6 -7 7 -16 4 -10 -4 -13 -2 -8 7 4 6 -2 4 -13 -5 -20 -19 -38 -24 -29
-10 7 12 -110 9 -121 -2 -5 -5 -2 -6 7 -1 8 4 4 -3 -10 -16 -13 -13 -27 -23
-30 -22 -3 1 -7 -6 -8 -15 -1 -9 -4 -34 -8 -55 -6 -34 -3 -41 31 -72 20 -19
45 -35 56 -35 10 0 18 -3 18 -7 -3 -18 2 -31 21 -51 23 -25 19 -28 -13 -10
-20 10 -21 10 -8 -5 7 -10 11 -17 8 -17 -12 0 -106 69 -99 73 4 2 1 2 -7 0 -8
-2 -11 2 -7 12 3 9 2 13 -4 10 -6 -3 -10 -1 -10 5 0 7 -6 10 -14 7 -9 -4 -12
0 -9 12 2 10 -3 24 -13 32 -16 13 -16 12 -4 -11 12 -23 12 -24 -3 -12 -11 9
-14 23 -11 42 3 15 1 37 -5 48 -8 16 -7 21 5 26 8 3 20 19 25 35 11 32 60 74
111 96 27 11 30 15 16 20 -22 9 -103 -40 -116 -70 -9 -18 -10 -19 -17 -2 -4 9
-5 24 -2 32 10 23 90 77 109 72 10 -3 21 -1 24 4 9 14 46 11 110 -11z m103
-72 c12 -15 11 -18 -3 -18 -10 0 -16 8 -16 22 0 12 1 19 3 17 1 -2 9 -12 16
-21z m3425 -98 c44 -38 137 -123 206 -188 139 -133 136 -123 56 -184 -23 -18
-33 -23 -23 -12 9 11 17 27 17 35 0 18 -66 84 -72 72 -3 -4 -4 -3 -2 3 1 7
-29 42 -68 79 -53 50 -73 64 -79 53 -7 -10 -9 -10 -9 2 0 13 -1 13 -11 0 -9
-13 -10 -13 -6 0 2 8 10 14 16 13 6 -2 11 0 11 4 0 11 -42 53 -53 53 -12 0
-63 -52 -206 -208 -62 -68 -133 -143 -157 -167 l-45 -43 -94 -4 c-52 -1 -95
-2 -95 0 0 2 15 18 33 35 18 18 77 82 132 142 152 167 357 385 362 385 3 0 42
-31 87 -70z m-3622 23 c-23 -5 -23 -5 -5 -26 10 -12 14 -19 9 -15 -5 4 -16 2
-24 -5 -13 -10 -14 -9 -7 2 5 9 4 12 -3 7 -15 -9 -4 -36 14 -36 8 0 14 -9 14
-20 0 -17 3 -19 18 -11 14 7 19 6 19 -4 0 -8 -4 -12 -8 -10 -3 3 -12 -1 -18
-9 -9 -11 -9 -15 1 -19 7 -3 1 -6 -14 -6 -16 -1 -28 4 -28 10 0 5 -4 7 -10 4
-13 -8 -24 39 -16 76 4 22 3 28 -7 23 -7 -5 -6 0 3 12 22 28 32 34 60 32 25
-1 25 -1 2 -5z m229 -36 c-10 -9 -11 -8 -5 6 3 10 9 15 12 12 3 -3 0 -11 -7
-18z m-139 -49 c-6 -6 -7 0 -4 19 5 21 7 23 10 9 2 -10 0 -22 -6 -28z m149 -1
c-1 -12 -15 -9 -19 4 -3 6 1 10 8 8 6 -3 11 -8 11 -12z m-29 -79 c-6 -6 -7 0
-4 19 5 21 7 23 10 9 2 -10 0 -22 -6 -28z m-267 -78 c12 -19 -14 -10 -42 16
l-28 25 32 -15 c17 -9 35 -20 38 -26z m125 9 c0 -5 -7 -9 -15 -9 -8 0 -15 7
-15 15 0 9 6 12 15 9 8 -4 15 -10 15 -15z m-97 -73 c36 -21 51 -26 60 -17 6 6
16 11 22 11 5 0 2 -5 -8 -11 -9 -6 -15 -13 -13 -17 13 -21 -47 -1 -83 27 -48
38 -71 33 -26 -5 36 -30 90 -60 81 -45 -5 7 -1 8 9 4 13 -4 14 -8 4 -14 -10
-6 -9 -13 5 -33 9 -15 14 -32 10 -38 -5 -8 -2 -9 10 -5 12 5 16 3 14 -5 -3 -9
-33 -14 -91 -16 l-87 -3 0 99 c0 96 1 99 23 98 12 -1 44 -14 70 -30z m3857
-19 c0 -2 -10 -12 -22 -23 l-23 -19 19 23 c18 21 26 27 26 19z m-4420 -108 c0
-19 1 -19 17 -3 12 11 18 13 21 5 3 -9 8 -9 17 -1 9 8 15 8 20 0 12 -19 -4
-26 -68 -28 -49 -2 -69 1 -81 13 -26 26 -19 35 29 35 39 0 45 -3 45 -21z
m1659 -239 c147 -9 223 -21 201 -32 -3 -1 -648 -5 -1435 -8 -1164 -4 -1434 -7
-1453 -18 -13 -8 -26 -11 -29 -8 -11 11 128 68 180 75 88 10 2347 3 2536 -9z
m3951 -2 c50 -15 118 -46 125 -58 3 -5 -6 -4 -22 3 -22 9 -309 13 -1268 18
-801 3 -1251 9 -1270 15 -25 9 -11 12 90 19 123 8 2198 24 2270 17 22 -2 56
-8 75 -14z m-6214 -246 c12 -7 41 -75 134 -307 27 -66 59 -142 71 -169 l22
-50 17 35 c10 19 40 95 68 169 28 74 69 178 90 230 l38 95 103 3 103 3 -7 -23
c-4 -13 -21 -54 -37 -93 -25 -59 -300 -715 -315 -752 -3 -8 -25 -13 -58 -13
l-52 0 -30 68 c-45 98 -320 763 -328 790 -6 22 -5 22 82 22 48 0 93 -4 99 -8z
m789 -92 l7 -94 17 30 c32 59 72 101 123 130 48 26 62 29 143 29 79 0 96 -3
145 -29 30 -15 69 -42 87 -59 l32 -30 -32 -40 c-18 -21 -39 -48 -48 -59 -15
-19 -16 -19 -63 6 -62 33 -109 41 -155 27 -47 -14 -68 -51 -51 -92 12 -28 30
-38 135 -79 141 -55 196 -122 203 -249 4 -64 1 -86 -18 -129 -76 -176 -316
-212 -497 -75 l-32 24 -3 -43 -3 -43 -63 -3 -63 -3 3 423 c2 233 7 430 11 440
7 12 21 16 62 15 l53 -2 7 -95z m972 70 c7 -14 45 -108 85 -210 39 -102 111
-284 159 -404 49 -120 89 -223 89 -228 0 -5 -44 -7 -97 -6 l-97 3 -25 63 -24
62 -156 0 -157 0 -32 -65 -32 -65 -94 0 -95 0 25 68 c14 37 39 99 56 137 52
123 248 630 248 643 0 22 28 33 80 30 46 -3 56 -7 67 -28z m788 24 c11 -3 50
-52 89 -112 100 -154 206 -302 215 -302 8 0 233 336 260 388 10 19 20 22 74
22 l62 0 -3 -435 -2 -435 -85 0 -85 0 -1 153 c-1 83 0 169 1 190 3 62 0 60
-110 -99 -39 -55 -81 -111 -94 -123 l-24 -22 -103 145 -104 146 -3 -195 -2
-195 -90 0 -90 0 0 440 0 440 38 0 c20 0 46 -3 57 -6z m1226 -44 c19 -47 317
-796 326 -817 4 -10 -18 -13 -91 -13 l-97 0 -29 65 -29 65 -156 0 -156 0 -29
-65 -29 -65 -96 0 c-52 0 -95 2 -95 5 0 3 42 112 94 243 52 130 126 320 166
422 40 102 80 191 89 198 9 8 36 12 65 10 49 -3 50 -4 67 -48z m795 25 c123
-36 204 -148 204 -282 0 -39 -5 -85 -12 -104 -17 -50 -64 -116 -98 -136 -17
-9 -30 -21 -30 -26 0 -11 87 -158 142 -239 21 -31 38 -59 38 -62 0 -4 -49 -6
-109 -6 l-109 0 -86 130 -86 129 -55 -1 -55 -2 0 -128 0 -128 -84 0 c-67 0
-85 3 -90 16 -3 9 -6 204 -6 434 l0 419 28 3 c75 8 361 -3 408 -17z m1424 -70
l0 -95 -115 0 -115 0 0 -345 0 -345 -90 0 -91 0 3 345 3 345 -190 0 -190 0 3
-345 3 -346 -93 3 -93 3 0 343 0 342 -122 0 -123 0 0 90 0 90 548 3 c301 1
573 3 605 5 l57 2 0 -95z m-6416 -286 c50 -39 22 -119 -42 -119 -33 0 -57 23
-67 62 -5 21 -1 33 19 52 31 31 55 33 90 5z m6810 0 c48 -38 22 -119 -39 -119
-31 0 -75 41 -75 70 0 26 43 70 68 70 11 0 31 -9 46 -21z m-4349 -862 c17 -28
37 -53 45 -54 8 -1 32 -5 54 -8 l39 -6 -41 -42 c-41 -42 -41 -43 -33 -95 10
-62 2 -65 -60 -26 -36 22 -43 24 -57 11 -28 -25 -81 -47 -87 -38 -3 5 0 33 6
62 l12 53 -39 34 c-31 27 -36 35 -24 42 8 5 26 10 40 10 36 0 64 22 85 69 10
23 21 41 24 41 3 0 20 -24 36 -53z m1925 40 c0 -8 9 -24 20 -37 22 -25 26 -35
10 -25 -5 3 -7 0 -4 -8 2 -7 10 -14 17 -15 30 -3 98 -20 104 -26 4 -3 -10 -24
-31 -45 -36 -37 -37 -39 -27 -82 6 -24 11 -47 11 -51 0 -16 -35 -7 -66 17
l-34 26 -43 -26 c-65 -38 -70 -35 -62 34 l7 58 -41 35 c-45 38 -44 48 3 48 57
0 73 10 96 61 23 48 40 63 40 36z m-1465 -80 c34 -67 48 -77 112 -77 29 0 53
-4 53 -8 0 -5 -20 -32 -46 -62 -25 -29 -43 -59 -40 -66 3 -8 8 -36 12 -64 8
-61 -1 -63 -69 -20 -26 17 -50 30 -53 30 -2 0 -22 -11 -43 -25 -22 -13 -52
-27 -66 -31 l-28 -7 8 58 c4 32 9 65 12 72 4 9 -15 34 -46 63 -55 52 -53 60
14 60 59 0 80 14 100 67 33 88 41 89 80 10z m1039 -2 c26 -58 40 -68 116 -82
l45 -8 -44 -47 -43 -47 7 -71 c4 -40 3 -70 -2 -70 -5 0 -33 15 -62 34 l-53 33
-50 -33 c-28 -19 -55 -34 -60 -34 -7 0 -8 25 -4 73 l7 74 -45 43 c-25 24 -43
47 -40 52 3 4 24 8 47 8 72 0 83 7 110 71 14 32 30 59 36 59 5 0 21 -25 35
-55z m-509 -56 c27 -52 34 -56 111 -65 30 -4 57 -11 60 -16 3 -5 -17 -33 -44
-62 l-50 -53 13 -64 c18 -86 10 -93 -66 -51 l-61 34 -58 -31 c-85 -45 -94 -43
-86 22 3 28 9 62 12 75 5 18 -2 31 -35 62 -24 23 -39 45 -35 52 4 6 3 8 -3 5
-6 -4 -16 -1 -22 7 -15 17 13 26 87 26 l53 0 22 48 c13 26 29 58 36 71 13 24
14 24 28 5 8 -10 25 -40 38 -65z"/>
<path d="M4603 8843 c26 -2 67 -2 90 0 23 2 2 3 -48 3 -49 0 -68 -1 -42 -3z"/>
<path d="M4783 8843 c26 -2 68 -2 95 0 26 2 4 3 -48 3 -52 0 -74 -1 -47 -3z"/>
<path d="M4957 8838 c-3 -10 7 -12 39 -9 24 1 44 7 44 12 0 14 -77 11 -83 -3z"/>
<path d="M5055 8841 c-7 -13 7 -20 41 -21 102 -3 203 2 230 12 23 8 54 8 115
0 l84 -10 -85 3 c-72 3 -77 2 -35 -5 28 -4 156 -8 285 -7 129 0 209 2 178 4
-32 2 -58 8 -58 12 0 5 30 6 67 3 48 -3 64 -2 59 6 -9 15 -872 17 -881 3z
m704 -17 c8 -7 -153 -2 -184 6 -16 4 17 5 75 2 58 -3 107 -6 109 -8z"/>
<path d="M4313 8833 c9 -2 25 -2 35 0 9 3 1 5 -18 5 -19 0 -27 -2 -17 -5z"/>
<path d="M4370 8818 c0 -5 26 -7 58 -7 61 1 55 6 -15 11 -24 2 -43 0 -43 -4z"/>
<path d="M4308 8813 c6 -2 18 -2 25 0 6 3 1 5 -13 5 -14 0 -19 -2 -12 -5z"/>
<path d="M4653 8813 c9 -2 23 -2 30 0 6 3 -1 5 -18 5 -16 0 -22 -2 -12 -5z"/>
<path d="M4963 8435 c0 -13 20 -15 121 -13 100 2 107 3 39 5 -46 2 -83 8 -83
13 0 6 -17 10 -38 10 -28 0 -39 -4 -39 -15z"/>
<path d="M5280 8440 c0 -5 18 -10 40 -10 22 0 40 5 40 10 0 6 -18 10 -40 10
-22 0 -40 -4 -40 -10z"/>
<path d="M5538 8443 c12 -2 32 -2 45 0 12 2 2 4 -23 4 -25 0 -35 -2 -22 -4z"/>
<path d="M6775 8440 c-8 -13 115 -13 135 0 10 7 -7 10 -57 10 -39 0 -75 -4
-78 -10z"/>
<path d="M7003 8444 c4 -4 3 -12 -3 -18 -6 -8 -2 -12 13 -13 12 0 16 1 8 4
-10 4 -10 7 -1 13 8 5 6 9 -6 14 -10 4 -15 4 -11 0z"/>
<path d="M3555 8430 c44 -11 65 -11 65 0 0 6 -21 9 -47 9 -43 -1 -45 -2 -18
-9z"/>
<path d="M3693 8433 c9 -2 23 -2 30 0 6 3 -1 5 -18 5 -16 0 -22 -2 -12 -5z"/>
<path d="M4130 8430 c0 -5 7 -10 15 -10 8 0 15 5 15 10 0 6 -7 10 -15 10 -8 0
-15 -4 -15 -10z"/>
<path d="M4258 8433 c12 -2 32 -2 45 0 12 2 2 4 -23 4 -25 0 -35 -2 -22 -4z"/>
<path d="M4450 8433 c0 -4 97 -10 216 -11 126 -2 214 0 211 5 -7 12 -427 17
-427 6z"/>
<path d="M5640 8430 c-25 -4 100 -7 278 -8 177 -1 322 3 322 7 0 10 -531 10
-600 1z"/>
<path d="M6287 8428 c22 -7 59 -8 115 -1 l83 10 -115 0 c-93 1 -109 -1 -83 -9z"/>
<path d="M6560 8432 c0 -4 18 -6 40 -4 22 2 40 6 40 8 0 2 -18 4 -40 4 -22 0
-40 -3 -40 -8z"/>
<path d="M3928 8423 c6 -2 18 -2 25 0 6 3 1 5 -13 5 -14 0 -19 -2 -12 -5z"/>
<path d="M6910 8249 c-55 -86 -131 -158 -205 -194 -30 -15 -55 -29 -55 -30 0
-2 29 -21 65 -44 36 -22 65 -45 65 -51 0 -6 -7 -4 -16 4 -8 9 -20 16 -25 16
-16 0 -10 -17 9 -25 15 -7 14 -9 -8 -15 -19 -6 -11 -8 31 -9 44 -1 60 -6 76
-23 25 -27 83 -118 83 -130 0 -4 -92 -8 -205 -8 l-205 0 1 -32 c1 -22 3 -26 6
-13 3 11 10 25 15 30 7 7 9 1 4 -17 -6 -28 -6 -28 46 -27 52 2 52 2 13 8 -39
6 -38 7 25 14 36 3 92 2 125 -3 l60 -9 -80 4 c-52 2 -69 0 -50 -5 17 -4 71 -8
121 -9 85 -1 92 1 103 22 l12 22 -5 -22 c-2 -13 0 -23 4 -23 5 0 11 10 13 23
l4 22 2 -22 c0 -13 6 -23 12 -23 5 0 8 3 6 8 -3 4 1 13 9 20 8 7 14 9 14 5 0
-4 5 -2 12 5 17 17 31 15 24 -3 -3 -8 -1 -15 4 -15 6 0 10 8 10 18 0 13 2 14
9 3 7 -12 56 -13 295 -6 205 5 286 4 286 -4 0 -6 7 -11 15 -11 23 0 18 17 -7
24 -13 3 -50 7 -83 8 l-60 1 60 7 c50 6 -434 2 -532 -4 l-32 -2 25 47 c40 72
82 119 102 113 13 -5 14 -4 3 4 -11 8 -9 12 10 23 13 7 31 12 39 11 12 -2 12
-1 2 6 -10 7 3 20 47 48 63 40 74 54 43 54 -20 0 -96 45 -125 74 -20 20 -14
38 9 29 11 -4 12 -8 4 -13 -8 -5 -4 -9 9 -13 12 -3 19 -1 16 3 -3 5 5 11 17
13 22 4 22 4 -2 7 -14 2 9 7 50 10 71 7 69 7 -38 7 -130 1 -127 -1 -187 97
-22 36 -42 66 -45 66 -3 0 -25 -32 -50 -71z m161 -223 c4 -5 -11 -22 -33 -38
-22 -16 -47 -42 -56 -57 l-16 -28 -62 61 -62 61 57 56 56 55 55 -50 c30 -28
58 -55 61 -60z"/>
<path d="M6850 8226 c14 -14 13 -29 -2 -20 -7 4 -8 3 -4 -5 4 -6 11 -9 16 -6
14 8 8 42 -7 42 -10 0 -10 -4 -3 -11z"/>
<path d="M3718 8223 c7 -3 16 -2 19 1 4 3 -2 6 -13 5 -11 0 -14 -3 -6 -6z"/>
<path d="M4120 8210 c-8 -5 -12 -11 -10 -14 3 -2 14 2 24 10 22 15 10 19 -14
4z"/>
<path d="M6315 8190 c-7 -11 22 -26 32 -16 4 3 -1 6 -11 6 -9 0 -14 5 -11 10
3 6 4 10 1 10 -3 0 -8 -5 -11 -10z"/>
<path d="M6340 8196 c0 -2 15 -6 34 -8 19 -2 32 0 30 4 -5 8 -64 12 -64 4z"/>
<path d="M3048 8163 c7 -3 16 -2 19 1 4 3 -2 6 -13 5 -11 0 -14 -3 -6 -6z"/>
<path d="M3150 8166 c0 -2 13 -6 29 -8 17 -2 28 -1 25 4 -5 8 -54 12 -54 4z"/>
<path d="M6678 8163 c7 -3 16 -2 19 1 4 3 -2 6 -13 5 -11 0 -14 -3 -6 -6z"/>
<path d="M7382 8147 c20 -20 59 -39 66 -33 3 3 1 6 -5 6 -5 0 -20 9 -33 20
-26 22 -49 28 -28 7z"/>
<path d="M2774 7938 l-19 -23 23 19 c21 18 27 26 19 26 -2 0 -12 -10 -23 -22z"/>
<path d="M2866 7944 c-5 -13 -3 -14 6 -6 7 5 24 12 38 15 22 4 21 4 -6 6 -21
1 -34 -5 -38 -15z"/>
<path d="M6522 7940 c0 -14 2 -19 5 -12 2 6 2 18 0 25 -3 6 -5 1 -5 -13z"/>
<path d="M6702 7951 c-11 -7 -11 -9 0 -14 9 -3 15 1 15 9 0 8 -1 14 -1 14 -1
0 -7 -4 -14 -9z"/>
<path d="M3380 7940 c0 -5 5 -10 11 -10 5 0 7 5 4 10 -3 6 -8 10 -11 10 -2 0
-4 -4 -4 -10z"/>
<path d="M7432 7939 c18 -7 33 -7 45 0 14 8 9 10 -27 10 -42 -1 -43 -1 -18
-10z"/>
<path d="M2773 7743 c26 -2 68 -2 95 0 26 2 4 3 -48 3 -52 0 -74 -1 -47 -3z"/>
<path d="M2948 7743 c17 -2 47 -2 65 0 17 2 3 4 -33 4 -36 0 -50 -2 -32 -4z"/>
<path d="M2698 7733 c7 -3 16 -2 19 1 4 3 -2 6 -13 5 -11 0 -14 -3 -6 -6z"/>
<path d="M3205 7730 c-61 -5 -42 -7 80 -6 88 0 248 -2 355 -3 123 -2 204 0
220 7 28 12 -511 13 -655 2z"/>
<path d="M2624 7718 c-3 -5 -3 -12 0 -15 3 -4 6 -2 6 4 0 6 9 9 20 6 11 -3 20
-3 20 0 0 10 -40 15 -46 5z"/>
<path d="M2978 7703 c6 -2 18 -2 25 0 6 3 1 5 -13 5 -14 0 -19 -2 -12 -5z"/>
<path d="M3218 7703 c12 -2 32 -2 45 0 12 2 2 4 -23 4 -25 0 -35 -2 -22 -4z"/>
<path d="M7383 7703 c15 -2 39 -2 55 0 15 2 2 4 -28 4 -30 0 -43 -2 -27 -4z"/>
<path d="M7580 7700 c16 -6 -62 -8 -220 -6 -164 2 -214 1 -150 -4 165 -13 402
-12 398 3 -3 6 -15 13 -29 14 l-24 2 25 -9z"/>
<path d="M6980 7690 c-9 -6 -10 -10 -3 -10 6 0 15 5 18 10 8 12 4 12 -15 0z"/>
<path d="M7030 7690 c-9 -6 -10 -10 -3 -10 6 0 15 5 18 10 8 12 4 12 -15 0z"/>
<path d="M2877 7683 c18 -2 50 -2 70 0 21 2 7 4 -32 4 -38 0 -55 -2 -38 -4z"/>
<path d="M3108 7683 c17 -2 47 -2 65 0 17 2 3 4 -33 4 -36 0 -50 -2 -32 -4z"/>
<path d="M7898 7543 c7 -3 16 -2 19 1 4 3 -2 6 -13 5 -11 0 -14 -3 -6 -6z"/>
<path d="M6578 7533 c12 -2 32 -2 45 0 12 2 2 4 -23 4 -25 0 -35 -2 -22 -4z"/>
<path d="M7098 7533 c34 -2 90 -2 125 0 34 2 6 3 -63 3 -69 0 -97 -1 -62 -3z"/>
<path d="M7453 7533 c54 -2 139 -2 190 0 51 1 7 3 -98 3 -104 0 -146 -2 -92
-3z"/>
<path d="M7537 7385 c-16 -25 -34 -42 -39 -38 -7 3 -8 1 -4 -5 4 -6 -8 -26
-25 -44 -17 -18 -25 -24 -18 -13 13 18 13 19 -3 6 -10 -7 -16 -17 -13 -21 7
-12 -61 -66 -114 -92 -36 -17 -41 -23 -29 -32 8 -6 15 -14 16 -19 2 -19 10
-31 11 -15 1 16 3 16 30 0 16 -9 27 -20 25 -24 -3 -4 2 -5 10 -2 9 3 21 -5 31
-20 10 -14 23 -26 30 -26 28 0 117 -131 108 -157 -4 -10 59 -13 294 -11 164 0
283 3 266 5 -18 2 -33 9 -33 15 0 6 32 9 89 6 49 -1 84 0 79 3 -6 4 -3 8 7 10
10 2 -116 4 -281 4 -278 0 -331 -4 -318 -27 2 -3 -5 -4 -16 -1 -11 3 -20 9
-20 14 0 5 7 6 15 3 8 -4 15 -1 15 6 0 6 -10 10 -22 8 -13 -2 -22 -9 -21 -15
1 -6 -4 -14 -12 -16 -11 -5 -11 0 2 30 32 77 117 167 196 208 21 11 41 23 43
27 2 3 -16 16 -40 27 -24 12 -61 37 -82 57 -21 19 -32 32 -24 28 11 -6 11 -2
-2 13 -31 34 -23 48 25 47 l42 -1 -40 6 c-25 4 16 8 105 11 l145 6 -144 2
c-126 2 -146 0 -158 -15 -14 -17 -14 -17 -9 -1 3 10 2 17 -2 17 -24 -4 -41 3
-46 19 -4 9 -14 27 -24 39 l-17 23 -28 -45z m72 -176 l46 -51 -44 -44 -44 -44
-42 39 c-23 21 -47 40 -54 42 -7 3 8 25 36 56 26 28 50 52 52 52 3 1 25 -22
50 -50z m186 -323 c11 -2 -13 -4 -52 -5 -40 0 -73 2 -73 7 0 6 79 5 125 -2z
m136 2 c-36 -7 -61 -7 -75 0 -16 8 -4 11 54 10 l75 0 -54 -10z"/>
<path d="M2356 7345 c4 -8 11 -15 16 -15 6 0 5 6 -2 15 -7 8 -14 15 -16 15 -2
0 -1 -7 2 -15z"/>
<path d="M3075 7341 c66 -3 262 -4 435 -1 310 5 309 6 -120 6 -239 0 -381 -2
-315 -5z"/>
<path d="M3848 7343 c7 -3 16 -2 19 1 4 3 -2 6 -13 5 -11 0 -14 -3 -6 -6z"/>
<path d="M6765 7340 c116 -4 298 -4 405 0 155 5 111 7 -210 7 -336 0 -369 -1
-195 -7z"/>
<path d="M6985 7320 l-60 -7 60 -2 c39 -2 53 -5 41 -10 -18 -7 -18 -8 -3 -14
9 -3 17 -2 17 3 0 5 26 11 58 13 l57 3 -60 4 c-50 3 -41 5 50 10 l110 6 -105
0 c-58 1 -132 -2 -165 -6z"/>
<path d="M7883 7323 c9 -2 23 -2 30 0 6 3 -1 5 -18 5 -16 0 -22 -2 -12 -5z"/>
<path d="M3213 7313 c15 -2 37 -2 50 0 12 2 0 4 -28 4 -27 0 -38 -2 -22 -4z"/>
<path d="M6531 7294 c0 -11 3 -14 6 -6 3 7 2 16 -1 19 -3 4 -6 -2 -5 -13z"/>
<path d="M7208 7303 c7 -3 16 -2 19 1 4 3 -2 6 -13 5 -11 0 -14 -3 -6 -6z"/>
<path d="M7688 7303 c7 -3 16 -2 19 1 4 3 -2 6 -13 5 -11 0 -14 -3 -6 -6z"/>
<path d="M2813 7293 c9 -2 23 -2 30 0 6 3 -1 5 -18 5 -16 0 -22 -2 -12 -5z"/>
<path d="M3393 7293 c9 -2 25 -2 35 0 9 3 1 5 -18 5 -19 0 -27 -2 -17 -5z"/>
<path d="M3597 7123 c-3 -5 38 -7 91 -5 172 4 190 8 50 10 -75 1 -139 -1 -141
-5z"/>
<path d="M6550 7115 c0 -16 25 -21 34 -7 3 5 146 9 317 10 171 1 314 4 317 7
3 3 -146 5 -331 5 -293 0 -337 -2 -337 -15z"/>
<path d="M7238 7123 c7 -3 16 -2 19 1 4 3 -2 6 -13 5 -11 0 -14 -3 -6 -6z"/>
<path d="M7858 7123 c7 -3 16 -2 19 1 4 3 -2 6 -13 5 -11 0 -14 -3 -6 -6z"/>
<path d="M7900 7122 c0 -9 241 -5 249 4 2 2 -53 4 -122 4 -70 0 -127 -4 -127
-8z"/>
<path d="M8165 7120 c3 -5 11 -10 16 -10 6 0 7 5 4 10 -3 6 -11 10 -16 10 -6
0 -7 -4 -4 -10z"/>
<path d="M7790 7105 c-7 -9 -19 -14 -26 -11 -14 5 -61 -41 -51 -51 4 -3 7 -1
7 5 0 7 7 9 17 5 12 -5 15 -2 10 10 -4 12 -1 17 12 17 10 0 26 9 36 20 10 11
16 20 13 20 -3 0 -11 -7 -18 -15z"/>
<path d="M7820 7095 c-7 -9 -8 -15 -2 -15 5 0 12 7 16 15 3 8 4 15 2 15 -2 0
-9 -7 -16 -15z"/>
<path d="M7905 7090 c3 -5 8 -10 11 -10 2 0 4 5 4 10 0 6 -5 10 -11 10 -5 0
-7 -4 -4 -10z"/>
<path d="M2846 7073 c10 -8 18 -17 17 -21 -1 -4 1 -9 4 -12 4 -3 3 0 -1 7 -3
6 2 16 11 22 20 12 20 12 -21 16 -27 2 -28 1 -10 -12z"/>
<path d="M7788 7063 c7 -3 16 -2 19 1 4 3 -2 6 -13 5 -11 0 -14 -3 -6 -6z"/>
<path d="M7838 7063 c7 -3 16 -2 19 1 4 3 -2 6 -13 5 -11 0 -14 -3 -6 -6z"/>
<path d="M2898 7043 c12 -2 30 -2 40 0 9 3 -1 5 -23 4 -22 0 -30 -2 -17 -4z"/>
<path d="M2120 6905 c0 -8 4 -15 10 -15 5 0 7 7 4 15 -4 8 -8 15 -10 15 -2 0
-4 -7 -4 -15z"/>
<path d="M7490 6910 c-12 -8 -11 -10 7 -10 12 0 25 -5 28 -10 10 -16 25 -2 18
16 -5 13 -7 13 -14 2 -7 -10 -9 -10 -9 0 0 14 -10 15 -30 2z"/>
<path d="M3803 6893 c-24 -2 -43 -8 -43 -14 0 -15 76 -10 90 6 7 8 9 14 4 13
-5 -1 -28 -3 -51 -5z"/>
<path d="M6525 6871 c-3 -5 14 -12 37 -16 24 -3 419 -4 878 -3 l835 3 -853 3
c-547 1 -860 6 -872 12 -12 6 -21 6 -25 1z"/>
<path d="M6520 6833 c0 -14 2 -15 9 -4 7 11 10 10 14 -5 3 -12 5 -14 6 -4 1
12 12 14 49 11 65 -5 50 5 -20 13 -51 5 -58 4 -58 -11z"/>
<path d="M2150 6825 c0 -8 8 -15 18 -15 14 0 14 2 3 9 -11 7 -7 10 15 14 l29
4 -32 2 c-23 1 -33 -3 -33 -14z"/>
<path d="M6918 6833 c23 -2 61 -2 85 0 23 2 4 4 -43 4 -47 0 -66 -2 -42 -4z"/>
<path d="M7288 6833 c6 -2 18 -2 25 0 6 3 1 5 -13 5 -14 0 -19 -2 -12 -5z"/>
<path d="M7508 6833 c17 -2 47 -2 65 0 17 2 3 4 -33 4 -36 0 -50 -2 -32 -4z"/>
<path d="M7643 6833 c9 -2 25 -2 35 0 9 3 1 5 -18 5 -19 0 -27 -2 -17 -5z"/>
<path d="M7943 6833 c15 -2 39 -2 55 0 15 2 2 4 -28 4 -30 0 -43 -2 -27 -4z"/>
<path d="M2248 6813 c6 -2 18 -2 25 0 6 3 1 5 -13 5 -14 0 -19 -2 -12 -5z"/>
<path d="M7688 6813 c7 -3 16 -2 19 1 4 3 -2 6 -13 5 -11 0 -14 -3 -6 -6z"/>
<path d="M2138 6713 c34 -2 90 -2 125 0 34 2 6 3 -63 3 -69 0 -97 -1 -62 -3z"/>
<path d="M3380 6695 c-7 -14 -15 -23 -18 -21 -4 4 -26 -16 -51 -47 -12 -15
-12 -17 2 -11 8 3 18 13 22 21 5 14 7 14 20 -3 10 -12 13 -13 10 -4 -3 9 6 31
20 50 28 37 29 40 17 40 -5 0 -15 -11 -22 -25z"/>
<path d="M3415 6709 c-4 -6 -4 -13 0 -17 3 -3 9 -1 13 5 4 6 28 13 52 16 l45
4 -52 1 c-28 1 -55 -3 -58 -9z"/>
<path d="M6534 6685 c-3 -20 -4 -39 0 -42 3 -4 6 6 6 21 0 18 7 29 23 35 12 5
150 9 306 10 156 0 286 3 289 6 3 3 -135 5 -306 5 l-311 0 -7 -35z"/>
<path d="M7423 6713 c-46 -9 -21 -22 37 -20 41 1 60 6 60 14 0 13 -48 16 -97
6z"/>
<path d="M7802 6713 c70 -2 187 -2 260 0 73 1 16 3 -127 3 -143 0 -203 -2
-133 -3z"/>
<path d="M2047 6683 c-4 -3 -7 -11 -7 -17 0 -6 5 -5 12 2 6 6 9 14 7 17 -3 3
-9 2 -12 -2z"/>
<path d="M3435 6679 c-11 -16 -1 -19 13 -3 7 8 8 14 3 14 -5 0 -13 -5 -16 -11z"/>
<path d="M2405 6671 c-17 -28 33 -39 55 -13 7 9 7 9 -2 2 -8 -7 -17 -5 -29 6
-11 10 -19 12 -24 5z m20 -11 c3 -5 1 -10 -4 -10 -6 0 -11 5 -11 10 0 6 2 10
4 10 3 0 8 -4 11 -10z"/>
<path d="M6888 6673 c7 -3 16 -2 19 1 4 3 -2 6 -13 5 -11 0 -14 -3 -6 -6z"/>
<path d="M7355 6670 c3 -5 10 -10 16 -10 5 0 9 5 9 10 0 6 -7 10 -16 10 -8 0
-12 -4 -9 -10z"/>
<path d="M3390 6660 c-13 -8 -12 -10 3 -10 9 0 17 5 17 10 0 12 -1 12 -20 0z"/>
<path d="M2056 6643 c-6 -14 -5 -15 5 -6 7 7 10 15 7 18 -3 3 -9 -2 -12 -12z"/>
<path d="M7286 6652 c-2 -4 4 -9 15 -9 11 -1 17 2 14 8 -7 11 -22 12 -29 1z"/>
<path d="M7346 6645 c10 -8 23 -15 28 -15 6 0 1 7 -10 15 -10 8 -23 15 -28 15
-6 0 -1 -7 10 -15z"/>
<path d="M7478 6643 c23 -2 42 -8 42 -14 0 -5 12 -9 28 -8 l27 1 -30 13 c-16
8 -48 14 -70 13 l-40 -1 43 -4z"/>
<path d="M3836 6628 c3 -4 9 -8 15 -8 5 0 9 4 9 8 0 5 -7 9 -15 9 -8 0 -12 -4
-9 -9z"/>
<path d="M6558 6628 c5 -5 16 -8 23 -6 8 3 3 7 -10 11 -17 4 -21 3 -13 -5z"/>
<path d="M2073 6615 c0 -6 12 -9 29 -7 15 2 28 5 28 7 0 2 -13 5 -28 7 -17 2
-29 -1 -29 -7z"/>
<path d="M6728 6623 c7 -3 16 -2 19 1 4 3 -2 6 -13 5 -11 0 -14 -3 -6 -6z"/>
<path d="M6876 6612 c-2 -4 12 -6 32 -4 56 5 62 10 15 11 -23 1 -44 -3 -47 -7z"/>
<path d="M7078 6613 c23 -2 61 -2 85 0 23 2 4 4 -43 4 -47 0 -66 -2 -42 -4z"/>
<path d="M7638 6613 c23 -2 61 -2 85 0 23 2 4 4 -43 4 -47 0 -66 -2 -42 -4z"/>
<path d="M7408 6603 c6 -2 18 -2 25 0 6 3 1 5 -13 5 -14 0 -19 -2 -12 -5z"/>
<path d="M1994 6489 c-3 -6 5 -7 23 -3 25 6 26 5 15 -8 -10 -13 -10 -18 -1
-24 7 -4 17 0 24 9 14 19 121 25 110 7 -3 -6 1 -7 9 -4 9 3 16 9 16 13 0 4 84
6 188 5 103 -1 196 1 207 6 11 5 -114 8 -282 9 -188 0 -305 -4 -309 -10z"/>
<path d="M2636 6492 c-3 -5 8 -6 25 -4 16 2 29 6 29 8 0 8 -49 4 -54 -4z"/>
<path d="M3060 6490 c34 -11 60 -11 35 0 -11 5 -29 8 -40 8 -16 0 -15 -2 5 -8z"/>
<path d="M3255 6489 c85 -7 168 -27 121 -28 -32 -1 -5 -19 34 -24 l35 -4 -37
-1 c-21 -1 -38 -7 -38 -13 0 -15 134 -6 153 10 8 6 17 7 22 3 4 -4 6 3 3 15
-3 12 -3 22 1 21 3 0 22 0 41 1 27 1 32 4 20 11 -10 7 25 10 113 8 70 -2 127
0 127 5 0 4 -154 6 -342 6 -241 -1 -316 -4 -253 -10z m138 -6 c-7 -2 -19 -2
-25 0 -7 3 -2 5 12 5 14 0 19 -2 13 -5z m145 0 c-11 -3 -18 -14 -18 -29 0 -26
-4 -27 -35 -14 -19 8 -19 9 3 9 28 1 30 21 1 21 -11 0 -17 5 -14 10 3 6 23 9
43 9 20 -1 29 -3 20 -6z"/>
<path d="M6520 6484 c0 -10 4 -12 13 -7 6 4 60 8 119 9 60 0 111 4 115 7 3 4
-51 7 -120 7 -108 0 -127 -2 -127 -16z"/>
<path d="M6542 6455 c0 -16 2 -22 5 -12 2 9 2 23 0 30 -3 6 -5 -1 -5 -18z"/>
<path d="M2295 6460 c3 -5 10 -10 16 -10 5 0 9 5 9 10 0 6 -7 10 -16 10 -8 0
-12 -4 -9 -10z"/>
<path d="M1981 6434 c0 -11 3 -14 6 -6 3 7 2 16 -1 19 -3 4 -6 -2 -5 -13z"/>
<path d="M2960 6438 c0 -8 9 -14 21 -15 12 -1 19 3 16 10 -5 17 -37 21 -37 5z"/>
<path d="M2170 6420 c0 -5 5 -10 11 -10 5 0 7 5 4 10 -3 6 -8 10 -11 10 -2 0
-4 -4 -4 -10z"/>
<path d="M3575 6410 c3 -5 15 -10 25 -10 10 0 22 5 25 10 4 6 -7 10 -25 10
-18 0 -29 -4 -25 -10z"/>
<path d="M6550 6222 c0 -15 4 -34 10 -42 7 -11 11 -9 19 13 15 39 14 44 -9 50
-16 4 -20 0 -20 -21z"/>
<path d="M6655 6200 c-12 -5 4 -6 40 -3 33 3 62 7 64 9 9 8 -85 2 -104 -6z"/>
<path d="M6634 6071 c4 -5 0 -12 -6 -14 -8 -3 -6 -6 5 -6 9 -1 17 6 17 14 0 8
-5 15 -11 15 -5 0 -8 -4 -5 -9z"/>
<path d="M7178 6053 c7 -3 16 -2 19 1 4 3 -2 6 -13 5 -11 0 -14 -3 -6 -6z"/>
<path d="M7178 6033 c7 -3 16 -2 19 1 4 3 -2 6 -13 5 -11 0 -14 -3 -6 -6z"/>
<path d="M6532 5855 c1 -67 1 -68 7 -20 4 34 10 49 19 47 14 -2 36 16 39 33 1
6 -14 10 -33 10 l-34 1 2 -71z"/>
<path d="M6614 5908 c3 -13 6 -30 6 -38 0 -10 4 -9 13 5 28 41 28 55 1 55 -22
0 -25 -3 -20 -22z"/>
<path d="M6637 5771 c-4 -17 -3 -21 5 -13 5 5 8 16 6 23 -3 8 -7 3 -11 -10z"/>
<path d="M6322 6190 c0 -19 2 -27 5 -17 2 9 2 25 0 35 -3 9 -5 1 -5 -18z"/>
<path d="M6323 5880 c0 -25 2 -35 4 -22 2 12 2 32 0 45 -2 12 -4 2 -4 -23z"/>
<path d="M6321 5720 c-10 -125 -10 -213 0 -203 6 6 8 59 6 129 -1 65 -4 99 -6
74z"/>
<path d="M4110 3820 c0 -5 5 -10 11 -10 5 0 7 5 4 10 -3 6 -8 10 -11 10 -2 0
-4 -4 -4 -10z"/>
<path d="M4143 3823 c4 -3 3 -11 -3 -17 -6 -8 -2 -16 13 -25 18 -11 20 -11 10
0 -7 7 -13 17 -13 22 0 4 6 5 13 1 8 -5 8 -2 -2 9 -7 9 -16 17 -19 17 -3 0 -2
-3 1 -7z"/>
<path d="M6938 6443 c7 -3 16 -2 19 1 4 3 -2 6 -13 5 -11 0 -14 -3 -6 -6z"/>
<path d="M6931 6408 c0 -13 7 -61 14 -108 l13 -85 -6 85 c-3 47 -6 95 -7 108
0 12 -3 22 -7 22 -5 0 -8 -10 -7 -22z"/>
<path d="M7696 6260 c-42 -13 -85 -58 -97 -103 -27 -100 25 -183 193 -308 l50
-38 50 36 c81 59 158 133 179 174 23 46 25 128 4 169 -35 67 -116 94 -188 62
-45 -20 -46 -20 -84 -1 -40 20 -62 22 -107 9z m117 -100 l25 -30 32 30 c42 39
82 40 121 1 21 -22 28 -38 27 -65 -1 -19 -5 -33 -9 -30 -5 3 -6 -1 -3 -9 6
-17 -53 -70 -68 -61 -6 4 -8 3 -5 -3 4 -6 -15 -29 -42 -51 l-48 -41 -24 25
c-13 14 -22 28 -21 31 2 2 0 8 -4 11 -4 4 -4 1 1 -7 5 -9 3 -12 -6 -9 -8 3
-13 11 -11 17 1 7 -2 10 -7 7 -12 -8 -33 19 -23 30 4 5 3 6 -2 1 -5 -4 -25 7
-43 25 -26 25 -33 40 -33 69 0 85 90 122 143 59z"/>
<path d="M7904 6109 c-3 -6 -2 -15 3 -20 5 -5 9 -1 9 11 0 23 -2 24 -12 9z"/>
<path d="M7736 6064 c-4 -9 -4 -19 -1 -22 3 -3 5 0 5 7 0 7 4 9 10 6 6 -3 7 1
4 9 -8 20 -10 20 -18 0z"/>
<path d="M3040 6230 c0 -5 18 -10 40 -10 22 0 40 5 40 10 0 6 -18 10 -40 10
-22 0 -40 -4 -40 -10z"/>
<path d="M1947 6193 c-3 -16 -2 -31 1 -35 4 -4 8 9 9 28 3 41 -3 45 -10 7z"/>
<path d="M2585 6150 c-3 -6 1 -7 9 -4 18 7 21 14 7 14 -6 0 -13 -4 -16 -10z"/>
<path d="M2678 6155 c-2 -3 -19 -7 -37 -9 -45 -5 -48 -12 -7 -26 19 -6 37 -16
40 -23 3 -9 7 -8 14 2 6 8 15 10 22 6 9 -6 11 -4 6 4 -5 7 -14 10 -22 7 -17
-7 -44 3 -44 16 0 5 10 6 21 3 15 -5 19 -4 15 4 -10 15 7 14 22 -1 8 -8 12 -8
12 -1 0 6 -7 14 -16 17 -19 7 -19 7 -26 1z"/>
<path d="M2258 6143 c7 -3 16 -2 19 1 4 3 -2 6 -13 5 -11 0 -14 -3 -6 -6z"/>
<path d="M1941 6124 c0 -11 3 -14 6 -6 3 7 2 16 -1 19 -3 4 -6 -2 -5 -13z"/>
<path d="M2228 6113 c7 -3 16 -2 19 1 4 3 -2 6 -13 5 -11 0 -14 -3 -6 -6z"/>
<path d="M2163 6075 c0 -7 6 -11 14 -8 7 3 13 6 13 8 0 2 -6 5 -13 8 -8 3 -14
-1 -14 -8z"/>
<path d="M2716 6068 c10 -14 23 -24 27 -21 4 3 16 -1 25 -9 15 -12 16 -11 3 5
-7 9 -21 17 -30 18 -12 0 -12 2 4 10 l20 9 -20 -2 c-11 -2 -26 2 -34 6 -8 6
-6 -1 5 -16z"/>
<path d="M2085 6069 c-4 -6 -5 -12 -2 -15 2 -3 7 2 10 11 7 17 1 20 -8 4z"/>
<path d="M2776 6072 c-3 -5 1 -15 8 -21 11 -10 14 -9 12 3 -3 21 -13 29 -20
18z"/>
<path d="M3003 6073 c9 -2 23 -2 30 0 6 3 -1 5 -18 5 -16 0 -22 -2 -12 -5z"/>
<path d="M3083 6073 c9 -2 23 -2 30 0 6 3 -1 5 -18 5 -16 0 -22 -2 -12 -5z"/>
<path d="M2130 6045 c-11 -13 -10 -14 4 -9 9 3 16 10 16 15 0 13 -6 11 -20 -6z"/>
<path d="M3128 5923 c6 -2 18 -2 25 0 6 3 1 5 -13 5 -14 0 -19 -2 -12 -5z"/>
<path d="M3087 5823 c-4 -3 -7 -11 -7 -17 0 -6 5 -5 12 2 6 6 9 14 7 17 -3 3
-9 2 -12 -2z"/>
<path d="M8401 5901 l1 -26 8 25 8 25 2 -25 c2 -21 3 -22 7 -5 3 11 10 23 15
26 6 4 -2 7 -16 7 -22 0 -26 -5 -25 -27z"/>
<path d="M8432 5815 c0 -16 2 -22 5 -12 2 9 2 23 0 30 -3 6 -5 -1 -5 -18z"/>
<path d="M8377 5810 c3 -11 11 -20 18 -20 8 0 11 8 8 20 -3 11 -11 20 -18 20
-8 0 -11 -8 -8 -20z"/>
<path d="M8322 5620 c0 -14 2 -19 5 -12 2 6 2 18 0 25 -3 6 -5 1 -5 -13z"/>
<path d="M2375 5915 c-90 -42 -126 -130 -94 -226 17 -51 57 -88 113 -104 45
-14 55 -14 98 1 116 38 162 166 95 265 -49 73 -137 99 -212 64z m144 -33 c64
-48 83 -165 35 -222 -53 -62 -117 -76 -174 -37 -48 32 -74 81 -73 139 2 113
126 184 212 120z"/>
<path d="M2375 5837 c-29 -29 -35 -42 -35 -76 0 -101 78 -150 158 -101 38 23
63 73 55 112 -9 47 -53 89 -100 95 -39 5 -46 2 -78 -30z m124 -43 c14 -31 14
-50 0 -75 -8 -16 -13 -18 -24 -9 -8 7 -19 9 -25 5 -5 -3 -10 1 -10 10 0 9 4
14 9 11 11 -7 22 56 11 67 -4 5 -24 -6 -45 -24 -30 -27 -37 -29 -33 -14 3 21
75 65 94 58 6 -2 16 -15 23 -29z m-71 -101 c11 -11 10 -13 -7 -13 -18 0 -41
26 -41 46 0 6 22 -9 48 -33z"/>
<path d="M2181 5694 c0 -11 3 -14 6 -6 3 7 2 16 -1 19 -3 4 -6 -2 -5 -13z"/>
<path d="M2575 5479 c-4 -6 -5 -12 -2 -15 2 -3 7 2 10 11 7 17 1 20 -8 4z"/>
<path d="M7160 5345 c-11 -13 -10 -14 4 -9 9 3 16 10 16 15 0 13 -6 11 -20 -6z"/>
<path d="M6950 5250 c8 -5 26 -10 39 -10 32 0 24 6 -19 14 -25 4 -31 3 -20 -4z"/>
<path d="M7520 5264 c0 -22 3 -25 23 -20 12 3 88 6 170 6 140 0 147 1 147 20
0 19 -7 20 -170 20 l-170 0 0 -26z"/>
<path d="M7520 5175 l0 -25 170 0 170 0 0 25 0 24 -170 0 -170 1 0 -25z"/>
<path d="M7520 5075 c0 -25 1 -25 89 -25 62 0 91 4 94 13 4 10 6 10 6 0 1 -9
23 -13 75 -13 73 0 86 6 86 41 0 5 -75 9 -175 9 l-175 0 0 -25z"/>
<path d="M7520 4975 l0 -26 90 2 c93 2 104 6 94 33 -5 13 -23 16 -95 16 -89 0
-89 0 -89 -25z"/>
<path d="M7714 4984 c3 -9 6 -20 6 -25 0 -10 109 -13 134 -3 9 3 16 15 16 25
0 17 -8 19 -81 19 -70 0 -80 -2 -75 -16z"/>
<path d="M7558 4902 c-30 -3 -38 -7 -38 -23 0 -17 8 -19 89 -19 62 0 91 4 94
13 4 10 6 10 6 0 1 -9 24 -13 82 -13 75 0 80 1 77 20 -3 20 -10 21 -138 23
-74 1 -152 1 -172 -1z"/>
<path d="M7520 4785 l0 -25 170 0 170 0 0 25 c0 24 -2 25 -74 25 -63 0 -75 -3
-79 -17 -4 -17 -5 -17 -6 0 -1 15 -12 17 -91 17 -89 0 -90 0 -90 -25z"/>
<path d="M8138 5283 c7 -3 16 -2 19 1 4 3 -2 6 -13 5 -11 0 -14 -3 -6 -6z"/>
<path d="M7232 5060 c0 -14 2 -19 5 -12 2 6 2 18 0 25 -3 6 -5 1 -5 -13z"/>
<path d="M8160 4639 c0 -5 5 -7 10 -4 6 3 10 8 10 11 0 2 -4 4 -10 4 -5 0 -10
-5 -10 -11z"/>
<path d="M2764 4170 c-82 -41 -109 -150 -59 -236 14 -23 38 -48 54 -55 16 -7
28 -16 26 -19 -9 -15 108 10 144 31 77 43 106 164 55 232 -48 65 -143 85 -220
47z m159 -59 c23 -22 31 -41 35 -80 4 -47 2 -53 -31 -86 -28 -28 -43 -35 -75
-35 -54 0 -103 35 -121 86 -13 37 -12 44 5 79 38 77 129 95 187 36z"/>
<path d="M3579 4063 c-13 -16 -12 -17 4 -4 9 7 17 15 17 17 0 8 -8 3 -21 -13z"/>
<path d="M2905 3610 c-3 -5 -1 -10 4 -10 6 0 11 5 11 10 0 6 -2 10 -4 10 -3 0
-8 -4 -11 -10z"/>
<path d="M3030 2636 c0 -102 4 -187 9 -190 5 -3 25 12 44 33 l35 39 34 -28
c52 -42 93 -60 142 -60 52 0 91 28 102 72 8 38 -35 79 -106 103 -128 42 -196
94 -226 172 -9 24 -21 43 -25 43 -5 0 -9 -83 -9 -184z"/>
<path d="M3900 2688 c-17 -46 -35 -93 -40 -105 -5 -12 -6 -24 -2 -26 14 -8
162 -8 162 0 1 16 -75 213 -82 213 -3 0 -21 -37 -38 -82z"/>
<path d="M5897 2670 c-20 -55 -37 -104 -37 -108 0 -5 38 -9 85 -11 47 -1 85 0
85 3 0 15 -83 216 -89 216 -4 0 -24 -45 -44 -100z"/>
<path d="M6560 2825 l0 -125 81 0 c95 0 142 18 170 64 36 58 20 123 -40 163
-29 20 -47 23 -122 23 l-89 0 0 -125z"/>
</g>
</svg>
